<?xml version="1.0" encoding="utf-8"?>
<!-- Generator: Adobe Illustrator 19.0.0, SVG Export Plug-In . SVG Version: 6.00 Build 0)  -->
<svg version="1.1" id="Todo" xmlns="http://www.w3.org/2000/svg" xmlns:xlink="http://www.w3.org/1999/xlink" x="0px" y="0px"
	 viewBox="97 169 676 737" style="enable-background:new 97 169 676 737;" xml:space="preserve">
<style type="text/css">
	.st0{fill:#F18DB1;stroke:#727272;stroke-miterlimit:10;}
	.st1{fill:#DD3274;stroke:#727272;stroke-miterlimit:10;}
	.st2{fill:#A60052;stroke:#727272;stroke-miterlimit:10;}
	.st3{fill:none;stroke:#727272;stroke-miterlimit:10;}
	.st4{fill:#FDCAE1;stroke:#727272;stroke-miterlimit:10;}
</style>
<g id="esmeraldas">
	<path id="XMLID_1_" class="st0" d="M354.7,172.3c0,0-9.3,10-6.7,13.3c2.7,3.3,6.4,6.7-0.5,8.7s-6.9,1.3-9.5,6.7s-2,2.7-5.3,0
		s-5.3-4-7.3-3.3s-7.3,13.3-15.3,14s-14-1.3-21.3,0c-7.5,1.3-5.5,3.3-12.8,7.3s-14,5.3-17.3,4s-3.3-5-9.3,0.5s-6,12.8-12.7,12.2
		c-6.7-0.7-4.7-4.6-13.3,0c-8.7,4.6-12.7,5.3-14.7,10s-4,9.3,0,12c4,2.7,8,1.3,8,8c0,6.7,0,10.7-3.3,12.7s3.3,6,2.7,8.7
		c-0.6,2.7,2.7,9.3,2.7,9.3s-4,8,0,8.7c4,0.7,2,5.3,7.3,0c5.3-5.3,9.3-6,12-6s6.7-3.3,5.3-7.3c-1.3-4,10-5.3,8,0s0,11.3,2.7,12.7
		c2.7,1.3-0.7,4.7-2.7,8c-2,3.3,0.7,8.7,4.7,6.7s5.3-0.5,10,0.4s5.3,6.2,8.7,6.2c3.3,0-1-5.3,5.8-2.7s10.2,8,12.2,2.7
		c2-5.3,6.7-11.9,4.7-15.3c-0.6-1.1-4.2-1.1-4.4-2.4c-0.2-2,2.9-4,5.6-6.8c3.3-3.5,5.4-6.8,5.4-6.8s4-4.6,12.7-1.3
		c8.7,3.3,16.7,3.3,21.3,1.3s16,2.7,16.7,0s4.7-9.3,8.7-7.3s4,6.7,7.3,3.3c3.3-3.3,9.3-7.3,12.7-12.7c3.3-5.3,5.3-6,9.3-6
		s7.3-4.7,5.3-9.3c-2-4.7-8.1-8.5-8.7-12.2c-0.7-5,5.3-5.8,5.3-8.5s0.7-6-4-8.7s-7.3-5.3-6.7-12.7c0.7-7.3,7.3-14.7,5.3-18.7
		s-4-4.7-10.7-10C372,186.3,354.7,172.3,354.7,172.3z"/>
</g>
<g id="sto_x5F_domingo">
	<path id="XMLID_61_" class="st0" d="M341.7,348.3c0,0,1.3-0.8,5.3,0.1c4,1,5.6-0.3,4.8,2c-0.8,2.3,0.8,6.3,2.9,7.7
		c2.1,1.4,7.6,4,7.3,6.4c-0.2,2-4.4,2.6-5.8,5.7c-1,2.3-11.2,3.6-13.8,1.6c-1.2-0.9-1.4-0.6-3.3,0.7c-2.4,1.6-2.3,3.9-3.7,6.4
		s-5,5.5-4.6,8.1s2,4.2,2,7.6c-0.1,3.4,1,5.2-1.3,6.2s-4.6,0.5-4.6,0.5s-0.1-3-1.4-4.2c-1.3-1.2-3.5-3.9-4.5-2c-1,1.8-4.9,4-6.8,5.5
		c-1.9,1.5-2.1,3.4-3.8,5s-5.4,4.2-7.9,5.1s-4,1.5-8.1,0.4s-6.6-1.1-5.7-2.7s2.7-2.2,3.9-4.2s3.4-4.4,1.6-6.1
		c-1.8-1.7-7.1-0.5-9.4,0.2c-2.3,0.7-7.8,1.5-7.8,1.5s-1-2.2,0-4.1s3.4-6.7,5.8-9.9c2.5-3.2,7.6-6.7,7.3-10.4s-2.3-7-2.5-9.4
		s0.2-9.5-1.5-10.6s-7.2-4.5-9.6-3.8c-2.3,0.7-3.9,2.5-5.7,0.7s-4.4-2.9-5.3-3.9c-0.9-1.1-1.9-1.3-2.2-5.4
		c-0.3-4.1-2.4-12.7-2.4-12.7l6.8-10.3c0,0,1.4,0.8,2.8,2.5s2.8,2.8,4.1,3.1s1.2-1.6,1.6-2.3c0.4-0.8,1.4-1.4,3.1-0.7
		c1.7,0.6,5.8,3,7.7,4s3.3,2.8,4.4,0.9s1.2-1.8,2.3-1.3c1,0.5,6.2,2.5,10.7,2.8s10.9-0.3,12.8-1.1c2-0.8,4.2-2,5-0.6
		s1.6,1.1,0.8,3.9c-0.8,2.8-2.2,6.8-0.8,8.2c1.4,1.4,4.3,2,5.5,1.5s3.9,2.3,6,3.1c2.1,0.8,3.4,0.3,5,1.6
		C340.3,347,341.7,348.3,341.7,348.3"/>
</g>
<g id="manabi">
	<path id="XMLID_20_" class="st1" d="M217.3,292.8c0,0-4.6-2.4-3.9,0.2c0.7,2.6,1,11.3,1.7,17.3s0,12.6-3.7,17.7
		c-3.7,5.1-6.3,6.5-9,11.1s-6.7,7.4-10,11.1s-10.7,4.4-10.7,4.4H180c0,0-0.7,2.5-3.3,4.8c-2.7,2.3-4.3,2-4,5.7s0,4.5-2.7,7.4
		s-7.7,1.9-7,5.2c0.7,3.3,2,7.3,3.7,8.7c1.7,1.3,1.3,8.3,2.7,10.3c1.3,2,0.7,5.4,4.3,8.2c3.7,2.8,4.7,1.5,7.7,2.1s3,3-1,3.7
		s-7.7,0-9-3s-1.7-8.6-5-2.8c-3.3,5.8-6.7,24.1-9.3,29.1s-7.3,8-10,7s-3.7-1.3-7,0.2s-3.7,0.2-5.7,0s-5,2.5-7.7,2.8s-1.3-4.3-4.3,0
		s-8.3,5.3-7.7,10.3c0.7,5,3.3,14.3,8.3,19.5s11,9.8,11.3,13.2c0.3,3.3-2,5-1.3,7s-2.7,3.7-2.7,3.7s4,6,0.7,6s-7.3,0.4-5.7,3.8
		c1.7,3.5,0.7,6.2-1.7,6.5c-2.3,0.3-3.3,1.7-1,5.7s4,7,4,7s3.7,1.3,7.3,0c3.7-1.3,9.3-0.4,11-2.9s4,0.1,7.3,0s7.7,4.7,13.7,3.5
		c6-1.3,6.3-6.7,13.7-3.5c7.3,3.2,3,5.5,7.3,3.2s6.3,1.2,7.7,0.9c1.3-0.3-0.3-4.3-1.3-8.6c-1-4.3-1.7-6.9,1.3-8.3c3-1.4,3-1.4,3-1.4
		s-4-0.7-2.7-4.3c1.3-3.7,3-5,0.7-7.7s6.3,0.7,6.3-4.3s-4.3-7.3,2-9.7c6.3-2.3,8.7,1.2,12-5.8s3-14.4,3-14.4h7c0,0,6.7-0.6,4.7,0.3
		s8.3-4.8,10-11.4c1.7-6.7,6-8,5-12.3s0.7-8,3-7s7,4.7,7,4.7s2,2.3,3.3-0.3c1.3-2.7,3-1.3,4.7-3s4-1,3.3-6.3s-2.8-14,0.1-12.3
		c2.9,1.7,5.2,4,5.5-0.3s3-9.3,4-10.5s0-3.5,0-5.9c0-2.3,0-3,2.3-6.7c2.3-3.7,4-7.3,7-10.3s5.8-9,3.2-11.3
		c-2.6-2.3-1.2-14.9-3.6-15.8c-2.3-0.9-8-4.9-11.3-2.5c-3.3,2.3-3.3-1.3-6.7-2.7c-3.3-1.3-4.3-4.3-4.3-8c0-3.7-2.3-11.3-2.3-11.3
		l6.8-10.3c0,0-6.8-2.8-10.2-1.7s-5.6,3.7-6.8-2s4.7-7.1,3.9-9.6s-3.3-2.8-3.8-7c-0.5-4.1,3-9,0.3-10.3c-2.6-1.3-8.1-0.8-8,2.1
		c0.1,2.9-0.4,5.8-2.9,6.6c-2.5,0.8-4.7-1.1-9.6,2.8c-4.9,3.9-9.1,6.1-9.1,6.1l-4.6-3.3l1.5-7.5L217.3,292.8z"/>
</g>
<g id="los_rios">
	<path id="XMLID_58_" class="st1" d="M275.3,430.7c1,3,0.3,3,0,7s0.4,5,0.5,7.3s-4.2-0.3-2.9,3.5s1,8.2-3.3,8.2s-6,0.7-8,3.3
		s-5.7,0.5-7.3,3.8c-1.7,3.2-1,4.6-3.7,5.6s-0.7,0-3,4.5s-11,16.5-13,25.2s-2.3,11,0,13.7c2.3,2.7,2,3.3,0.3,3.7
		c-1.7,0.3-4.9,4-2,5.7c3,1.7,4.6,5.3,4.3,6c-0.3,0.7-1.3-1.6,3.3,1.4c4.7,3,8.3,6.3,9.7,10.7c1.3,4.3-0.6,4.3,3.5,7
		s5.5,4.3,9.8,3.3s9.1-5,12.2-2.3c3.1,2.7,5.5,6.6,7.5,6.6s2.7,1.4,4,2.4s5.8,4.6,8.3,8.9c2.5,4.3,2,6.1,4.4,6.4
		c2.3,0.3,4-1.3,6,1.7s5,4.7,5,4.7s-0.2-6.2-2-9.6c-1.7-3.4-7.2-6.6-6.6-9.4c0.6-2.7,2.9-4.6,3.6-7.6c0.7-3-1.1-10.1-0.7-12.1
		s1-6,1-6s-0.3-3.7-1.4-6c-1.1-2.4-5.2-4-7.8-5.7c-2.5-1.6-0.7-1.4,3.8-4.5s5.9-5.9,3.1-6.7c-2.8-0.8-7.4-0.4-7.8-3.5
		c-0.4-3.2-0.3-7.8,0.7-12.6c0.9-4.8-2.3-11.1-4.3-10.5c-1.9,0.5-4.9,1.3-3.4-0.7s2.8-4.3,4.8-7.1c2-2.8,5.6-5.4,5.6-5.4
		s-2.2-4.2-4.5-6.4s-4.8-4.1-4.3-8.1c0.4-4,3.5-7.9,7.9-13c4.3-5.1,6.9-7,4.9-8.9c-0.8-0.8,2.9-2.9,3.4-4.1c0.4-1-1.8-2.6,0.9-4.1
		c2.8-1.5,9.1-4.2,4.4-4.9c-4.7-0.7,5.3-2.8,6.7-9s2-9.4,2-9.4s1-3.5,4.3-2.6s0.7-4.4-2.1-5.4c-2.9-1-0.8,0.7-5.9,3.3
		c-5,2.7-6,4.1-6.7,6.2s-2,2.3-4.7,3.5c-2.7,1.3,0.3,0.3-3.5,2.3s-6.5,0.7-9.8,0s-5.9-2-1.9-4.7s5.3-8.7,1.9-9c-3.3-0.3-10,2-10,2
		s-6-0.1-5.9,1.4c0.1,1.1,2.2,0.2-0.1,4.5s-3.4,6.3-3.7,8.4s0.4,6.1-2.7,4.3s-5.3-3.7-4.4,2.5s0.4,12.6,0.4,12.6s6.1-2.2,6.8-2.5
		C273.7,429.7,275.3,430.7,275.3,430.7z"/>
</g>
<g id="sta_x5F_helena">
	<path id="XMLID_22_" class="st0" d="M152.3,523.8c0,0-0.3,3.9,0,9.2c0.3,5.3,0,9.3,2.7,14.3s3.7,7.6,8,7.3s7.3,1.7,9.3,4
		s3-1.3,6,4.7s5.7,8,8.7,8.3s2.7-1.7,3.7,5s4.3,13,1.3,12.7s-3.7,1.3-0.7,4s1.7,5-1.3,6.3s-7-3-9,0s-7.9,6.7-8.3,4.7s-2-0.5-3,0.6
		c-1,1.1,2,4.4-1.7,9.4s-8.7,1.3-10,3.3c-0.8,1.3-3,2-4.4,2.4c-0.8,0.2-1.4,0.3-1.4,0.3s-7.5-12-10.5-11.7c-3,0.3-3.7-0.7-8-1.3
		c-4.3-0.7-8-4.3-10-5.7c-2-1.3-5.7-4.7-6.7-2.7s-1.1-1.3-2.4-3.7c-1.3-2.3-11.3-11.5-11.3-11.5s2-2.2,4,0c2,2.2,0.9,7.2,7.3,4.2
		s9.7-5,12.1-6.7c2.3-1.7,10.3-9,8.3-13.3c-2-4.3-3.3-8.3-3.3-8.3s1-0.7,3.3-2.3c2.3-1.7,0-11.3-2.3-17.3s-6.3-10-6.3-10l0.3-3.3
		c0,0,2.6,0.9,7.3,0c4.7-0.9,9.8-1.9,11-2.9S152.3,523.8,152.3,523.8z"/>
</g>
<g id="guayas">
	<path id="XMLID_55_" class="st2" d="M174,636c0,0,1,0.7,5.3,5.3c4.3,4.7,8.3,8.7,10.7,6c2.3-2.7,0.3-5,0-9s-1.2-3,3.2-6
		s11.4-4,13.4-10s1-4.8,4.3-10.8s3.3-9.9,7-10.6c3.7-0.7,10-8.3,9.3-4.7c-0.7,3.7-6,6.3-7.7,7.7c-1.7,1.3-0.3-3.7-2,4.7
		c-1.7,8.3-6.7,14-2,11.7c4.7-2.3,4.7,0,6.7,0s4.8-3,5-5.3c0.3-2.3-6.4,6.7-4,9c2.3,2.3-1.3,7.3,2.7,6.3s4.3-2.3,5.8-6.3
		s4.8-14,4.8-19.3c0-5.3,1-7-2-11.3c-3-4.3-3-6.4-2.8-9.5c0.2-3.1-4.8-9.1,0-9.8c4.8-0.7,6.8,2,7.5-2.2c0.7-4.2,2.7-4.8,5.3-5.8
		c2.7-1,6,0.7,3,2.3c-3,1.7-1.6,4.4-5.4,5c-3.8,0.6-9.3,7.3-7.3,10.5c2,3.2,2.7,6.9,3,10.5c0.3,3.7,2.2,5.5,0.3,9.3
		c-1.9,3.9-1.7,2,0.7,5.7c2.3,3.7,5.3,16,7,13s5-7.7,5.3-3.7s2.3,7.7,0,8.7s-4.7,1.3-3.7,4.3s3,6,0,6.3c-3,0.3-6.5,0.7-5.4,3
		c1.1,2.3,0.9,4.7,0,9.7s-0.9,9-2.9,11s-2.7,0.3-3.3,6c-0.7,5.7,1,9.3,0,11s-2.7,4.3-2.7,4.3s3.7-0.3,6,0s8.3,3.2,8.3,3.2
		S252,677,255,671s6.1-14.2,8-20.3s1-6.3,4.5-9.5s14.7-13,14.7-13l7.1-5.8c0,0,0-3.8-4.1-4.3s-5.6,4.1-7.8,4.3c-1.3,0.1-4-1.8-4-3.3
		c0-1.2-0.3,0.1,4.8-5.5c5-5.6,6-10.4,7-11.4c0.7-0.7-0.5,0.3,4.2,0.2c6.2-0.2,8.9-1.6,12-4.6c3-3,5.8,2.6,10.8,0.9
		c5-1.7,2.4-3.6,2.7-5c0.3-1.3,3.1-2,3.3-4.3c0.2-2.3,3-5.7,3-5.7s0.2-2.6,0-4.3c-0.2-1.7-2.3-5-4-3s-1.3,6.3-3.7,4.3
		c-2.3-2-4.5-2.8-5.8-4.8c-2.2-3.4-5.4-2.8-7.5-3.5c-2.1-0.7-3.4-6.7-8-11c-4.6-4.3-5.8-4.9-8.6-6.7c-2.8-1.8-5.5-9.1-10.3-7.5
		c-4.9,1.6-8.9,4.5-12,3.5s-9.4-3.6-10-7.1s-3.5-9.6-7.5-12.2s-4.3-3.6-7.4-6.4c-3.1-2.8-4.1-6.8-2.6-7.6c1.5-0.9,3.5-3.1,1.5-6.1
		c-2-3-1.9-12.6,4.2-22.9s8.1-16.6,9.8-17.7s4-5.2,5.3-6.6s4.8-1.4,7.3-3.8s5.2-2.4,8-3.3s4.7,0.2,4-4s0-7,2.2-7.7
		c2.1-0.7-1-3.6-0.5-7.3c0.5-3.7,2.6-8-2.3-7.7s-2.9,0.1-9.3,4.3c-6.4,4.3-3.5,6.1-9.3,2.4c-5.7-3.7-8.5-6.9-8.6-1.8
		s-2.2,9.8-3.6,13.6c-1.5,3.8,1.7,2.9-3.7,8.2c-5.4,5.3-6.4,7.4-10.8,7.1c-4.3-0.3-8.7-0.3-8.7-0.3s-0.9,11.1-3,14.4
		s-3.6,3.6-8.4,4.9c-4.8,1.4-8.3-0.8-7,4c1.3,4.9,3,7.8-0.9,9.3c-4,1.5-1.7,2.2-3.2,5.7s-4.5,3.5-1.6,5.7c2.8,2.2,5.2,2.2,5.2,2.2
		s-6.1-0.4-6.8,2.5c-0.7,2.9,0.3,12.7,1.9,14.3s-3.8-0.9-6-0.1c-2.2,0.8-4.5,0.2-7-1.2c-2.5-1.3-1.3-5-9.7-1.3
		c-8.4,3.7-10.5,3.3-15.3,1.7c-4.8-1.7-4.8-1.7-4.8-1.7s-0.8,6.9,0.2,13.5c1.1,6.7,2.6,11.9,4.8,14.3c2.3,2.4,1,2.4,5.6,3
		c4.6,0.6,6.2,3,9.3,4c3.1,1.1,3.5,0.5,6,4.7c2.5,4.2,5.8,7.8,8.7,8.3c2.8,0.5,2.6-1.2,3.5,3.6s4,10.7,2.8,12.4
		c-1.2,1.7-5.5,1.1-3.7,3.4s6.9,6.6,3.7,7.6s-8.2-1.2-10.2-0.1s-10.3,5.7-10.3,5.7s-1.2-3.3-2.9,3.4c-1.8,6.6-1.2,8.8-6.5,9.4
		s-4.7,1.2-7.2,2.1c-2.5,0.9-2.5,0.9-2.5,0.9s4.7,7.6,8.1,10.3C165,633,169.3,639.7,174,636z"/>
</g>
<g id="el_x5F_oro">
	<path id="XMLID_25_" class="st0" d="M231.8,684.3c0,0-3.2,3.3-2.8,7.7s0,4-4.7,6s-5.7,3.7-6,7s-2.3,5.3-3,8.2c-0.7,2.8,2,5.2,0,6.5
		s-4.3,2.3-4,3.7c0.3,1.3,0.7,2.7-2.7,2.3c-3.3-0.3-6-1.6-8.7,0.1c-2.7,1.6-6.8,0-6.8,0s-3.9,1.9-2.2,5.3s3.7,4.7,3.7,8
		s-1.7,6.3,0.7,6.7c2.3,0.3,2.7,0.3,2,4.3s-3,11.3-0.7,15.3s4.3,12.7,4.3,12.7s6.8-0.3,10.2-0.7s8.2-3.2,11.9-4.3
		c3.7-1,9.8-0.8,14.9-1c5.1-0.2,11.5,1.5,15.6-2.8s6.2-8.9,8.3-7.3c2.1,1.7,3.6,5.1,7.3,5.6s12.1,2.1,12.1,2.1s4.7-0.5,5.9-3.1
		c1.1-2.6,1.5-8.4,2.7-10.3c1.1-1.9,2.1-6.3,2.1-6.3s-5.6-6.6-6.8-6.4c-1.2,0.3-1.2,0.2-1.6,2c-0.4,1.8-6.3,1.7-6.3,1.7
		s1.7-7.4,2-10.2s2.3-2.5,4.3-4.8s4.3-7,0-8s-6.1-0.3-5-4.6s2-6.6,2-6.6l-11.7-1.5l-4.4,3c0,0-4.5-0.5-6-0.3s-0.1-8.1,3-11.3
		s5.5-7,2.6-8.8s-12.5-6.2-16.6-8c-4-1.8-7.9-3.5-11.1-3.3C233.3,683,231.8,684.3,231.8,684.3z"/>
</g>
<g id="carchi">
	<path id="XMLID_52_" class="st3" d="M495.3,259.7c0,0-11.3-2.7-12.7,0c-1.3,2.7,7.3,7.4,6.3,8.8c-1,1.3-3.7,0.4-9.7,5.7
		c-6,5.3-10.5,13.5-8.5,14.8s2.2,7.3-0.6,6s-5.9-5.7-10.3-7.4c-8.8-3.3-10.4-9.7-13.2-11.7c-2.7-2-8.6,8.1-13.3,0.9
		c-4.7-7.2-6.5-27.2-14.6-31.8s-28.1-12-28.1-12s-7.5-2.4-6.7-9.3s4.7-12.1,5-17c0.3-5-2.8-9.1-2.8-9.1s9-1.9,12.4,6.8
		c3.5,8.6,13.6,12.6,20.2,14.6c6.6,2,8.6,8.7,15.9,12.7c7.3,4,10.7,7.3,16.3,10c5.7,2.7,12.3,4,15.7,1.3c3.3-2.7,10-4,12.7-4
		s7.3,0,6.7,3.3c-0.7,3.3-10,5.6-6.7,7.8c3.3,2.2,6.7,0.2,11.3,4.9C495.3,259.7,495.3,259.7,495.3,259.7z"/>
</g>
<g id="imbabura">
	<path id="XMLID_5_" class="st4" d="M359.3,306.3c0,0,10.7,6.7,14,5.3c3.3-1.3,13.3,0.2,16-2.6s4.5-1.4,9.3-2.8
		c4.7-1.3,7.8,7.6,5.8,10.8s6.3-7.1,7-5.3c0.5,1.5,3.5,9.8,7.4,9.2s17.1-7.6,20.9-7.4c3.7,0.1,5.1,1.2,11.4,0
		c6.3-1.2,13-3.8,13.7-7.5s2.6-14.1,2.6-14.1s-13.5-7.6-16.3-10c-2.7-2.5-0.4-8.2-7-5s-8.6,6.5-10.7,0c-2-6.5-4.6-17.5-6.8-22.1
		c-2.2-4.6-9.7-11.2-18.6-14.9c-8.9-3.7-17.3-6.8-17.3-6.8s4.9,6.5,4,8.7c-0.9,2.3-6,2.3-5.3,8.5c0.7,6.2,8.5,6.9,8.7,12.2
		c0.1,5.3,2.2,8.6-5.3,9.3c-9.5,1-6.5,4.8-14.2,11.8c-7.8,6.9-9.7,8.6-9.7,8.6s-2.3-5.8-9-4.8c-6.8,1-3.2,8.6-10.5,7.6
		s-9.9,2.3-19.3,0.9c-9.3-1.4-17.5-5.7-22.1-3.9s-6.9,4.1,1.2,5.5s14.2,1.7,16.9,3s6.7,7.8,9.4,8.6
		C341,310.4,357.4,303.5,359.3,306.3z"/>
</g>
<g id="pichincha">
	<path id="XMLID_49_" class="st2" d="M452.9,313.9c0,0-7.8,3.6-2,7.1c9.4,5.7,20.3,8.6,16.3,11.3c-3.9,2.7-9.1,0.7-9.8,4.7
		c-0.8,4,0.8,9.4,0,10c-1.3,1-0.7-3.3-6.4,0s-11.1,1.3-11.4,5.3s-0.9,7.3-4.3,4.7c-3.3-2.7-9.3-2.7-10,1s0.7,7.7,0,11.7
		s-5.9,2.7-6.6,8c-0.7,5.3,0.7,5.9,0,10.6s-3.4,11.3-3.4,11.3H411c0,0-0.5,9.2-3,10.2c-1.5,0.6-6-3.3-6.7,0s-2.7,4.7-7.3,0
		c-4.7-4.7-2.2-6.7-10.1-6.7c-7.9,0-8.6,4.7-13.2,5.3c-4.7,0.7-8.7-2-8-7.3c0.7-5.3-2.7-4-8.7-5.3c-6-1.3-4-2.7-4.7-6.7s-6-12-6-12
		s-3.4-4.3-2.7-4.6c1.8-0.7,6.1,1.9,10.7,0.6c4.7-1.3,10.7-8.5,10.7-8.5s-4-4.8-8-6.8s-2-8-2-8s-5.3-2-8.7-1.3
		c-3.3,0.7-2-2.7-6.7-3.3c-4.7-0.7-6-4.7-10.7-4c-4.7,0.7-4.7-4-3.3-8c1.3-4,0.7-8.1-5.3-5.1c-6,3.1-20,0-20,0l-4.7-2.3
		c0,0,6.6-11.8,4.7-15.3c-0.6-1.1-6-1.8-4-3.3c1.5-1.2,3.9-3,5.3-5.3c1.6-2.6,3-5.5,5.1-5.8c1.7-0.2,9.4,2.5,14.9,3.4
		c7.4,1.2,5.2-0.9,10.6,5.1c5.4,5.9,8.2,4.9,12.8,4.6c4.7-0.3,11.8-5.7,17.2-2.7c5.5,3,12.1,6.5,21,4.6c9-1.9,17.8-6.4,21.5-4.8
		c3.7,1.6,2.7,10.2,2.7,10.2l6.7-4.5c0,0,2.9,9.2,7.4,9.2c5.7-0.1,15.8-8,20.9-7.4L452.9,313.9z"/>
</g>
<g id="cotopaxi">
	<path id="XMLID_12_" class="st4" d="M340.6,372.4c0,0-4.3,1.9-4.9,5.6c-0.7,3.7-3.7,4.3-4.7,8s2.7,6,1.7,9.3c-1,3.3,0,7-4,6.3
		c-4-0.7-5.7-3-7.7,1.7s1.3,3.4-2,9.4s-8,7-6.7,9s1,2.8-1.7,3.4s-4.3,2.6-3.7,5.6s-3.2,1.7-3.9,3.3c-0.8,1.7,2.9,3.7-4.4,9.7
		c-7.3,6-9,10-7.3,15.7s4.7,5,6.3,8c1.7,3,1.8,6,5.4,4.3c3.6-1.7,3.6-3.3,6.2-4c2.7-0.7,10.3-7,15.3-1.7s14.9,10.6,15.9,6.1
		c1.1-4.5,4.7-2.1,8.4-2.8c3.7-0.7,4-3.7,4-4.7s2.7-0.3,6-1.3s3.7-0.3,6,0.7s5,2,6.7,2s1-3,4.3-3.7s8.8,0.7,7.9-1.7
		c-0.9-2.3-3.6-6,0.1-5.7s4.4,5,7.7,5.7s2.9-0.3,6.9-4c4.1-3.7,3.4-8.2,3.4-8.2s-1.4-8.5-1.3-10.1s4.3-5.9,4.3-11.1
		s-1.8-6.3-6.4-11.9c-4.6-5.7-7.9-11.9-11.3-12.1c-3.4-0.2-9.1,1.8-12.9,3.4c-3.7,1.7-10.8,2.1-11.3-1.8s2.7-7.2-2.3-8
		s-6.6,1.3-9-1.8c-2.4-3.1-1.6-5.7-4-10.2C345.4,380.4,340.6,372.4,340.6,372.4z"/>
</g>
<g id="tungurahua">
	<path id="XMLID_45_" class="st0" d="M345,473.8c0,0-0.3-0.2,0,4.2s4,4.3-0.1,7.7c-4.2,3.3-6.5,4-3.2,8.7c1.7,2.3,4.6,3.9,5.4,6.2
		c1.1,3.2,5.9-1.2,7.9-1.5s6.6-3.1,9,2.7c1.2,2.9,6.3,4.5,9,3.4s3.1,2.1,7.4,0.3c4.3-1.7,9.6-7.4,11.3-6.4s5.7,2,8.3,4.3
		c2.7,2.3,6.6,4.6,10.3,3.1s3.2-1.3,5.6,0.5c2.4,1.7,7.8-0.7,9.3-3.4c1.5-2.7,5.4-4.5,5.4-4.5s-2.8-2.3,0-5.3s3-4.2,2-8
		c-2.4-9.5-0.3-17.4-2.9-19.5c-4.6-3.8-8.8,2.8-11,1.2c-0.9-0.7-0.1-4-4.1-2.3s-4.6-2.9-4-8.1c0.6-5.1,4-8.4-2.3-8.4s-6.1-0.4-6.3,0
		c-0.9,1.8-0.6,5.4-2.6,7.4c-3.9,3.8-5.4,6.5-7.7,4.8c-3.3-2.5-4.8-3.7-6.1-5.2c-0.6-0.7-5.1-2.8-3.3,1.2s3.8,5.4-0.2,5.4
		s-6.9,0.2-8.6,2c-1.7,1.8-2.4,1.5-8.4-0.2s-5.7,0.4-9.1-0.1c-4.2-0.7-0.6,2.7-4.6,4.4C347.1,470.2,345,473.8,345,473.8z"/>
</g>
<g id="bolivar">
	<path id="XMLID_15_" class="st4" d="M345.7,534c0,0,0.3,3.7-4,2s-9.7-2.3-9.7,2.7s2,18,0,23s-5.3,7-4,9s0.9,5.2-0.3,7.3
		c-1.7,3.1-5.8,7.7-6.7,5.7c-1.1-2.3,0-2,0-4.3s-1-4.7-4-3s-1.3,5.3-3.7,4.3c-2.3-1-3.3-3.3-3.7-6.3c-0.3-3,0-5.7-2.3-8.7
		s-7.2-6.7-4.2-8.7c2.9-2,3.9-8,3.9-10s-2.7-7.7-1.3-9c1.3-1.3,1.3-11.7-3.5-13.7s-7.5-2.3-4.8-4.7c2.7-2.3,9.7-2.7,8-7
		s-8.1-0.6-9.1-5.2c-0.9-4.5-0.1-3.5,0-8.5s2.7-7,1.1-11c-1.7-4-1-4.7-4.7-3.7s-4.5,1.7-1.9-2.7c2.6-4.3,5.3-7.8,5.3-7.8
		s2.7-3.2,3.6-2.6c0.7,0.5-0.8,3.5,3.5,0.5c4.3-3.1,12.5-7.2,14.4-7.5s5.4-1.2,9.5,4s12.3,7.6,13.4,4.4s9.8-3.8,9.5-3.4
		c-2,2.8-4.2,2.4-4.8,4.7c-1.1,4,1.8,9.2,1.8,9.2s-0.3,0.9-3.4,3.7c-3.1,2.8-3.8,3.5-1.8,7.6s7.1,5,6.2,10.3
		c-0.9,5.3-5.2,11.3-3.9,12.7c1.3,1.3,2.7-0.7,3.9,2.3s6.8,4.3,3.6,5.7C348.3,526.7,347.2,531.6,345.7,534z"/>
</g>
<g id="chimborazo">
	<path id="XMLID_42_" class="st0" d="M318,589.3c0,0,4,1.3,5,4s4.4,4.9,6.1,7.1c3.3,4.1,8,9.5,12,11.1c4,1.7,6-0.6,6.7-0.9
		c2-0.9,4.9-1.5,6.8-3c2.7-2.2,5-5.8,8.3-7.2s5.3,1.1,10.3,0c5-1.1,12-1.5,12-1.5s2.5-0.3,3.3-2.7c0.9-2.4,2-3.3,3.7-6.3
		s2-4.9,0.3-6.3c-1.6-1.5-4.2-4.4-3-5.3c0.8-0.6,1.8,1.1,4.1-0.1c2.2-1.2,7.1-1.3,5.6-4.9c-1.5-3.6-0.8-10.7-0.8-10.7l-5.3-1.7
		c0,0-1,0.1,2.3-4.7c3.3-4.7,8.6-7.2,5.7-12.8c-2.9-5.7-7.7-5.3-6-8.2s5.2-3.1,8-8.8c2.8-5.7,2.2-11,3.4-15.4
		c1.2-4.4,1.1-3.5-1.8-4.7c-5.5-2.1-10.1-5.9-11.7-6.6c-1.6-0.8-3.1-0.8-6.8,1.8c-3.7,2.6-6.4,5.3-9.1,4.3c-2.7-1-5.2-0.2-6.7-0.5
		s-4.7,0.3-6.7-3.7s-5.2-5.2-9-2.7s-5.8,1.1-7.1,5.7c-1.4,4.6-6.1,12.1-3.9,12.7c2.2,0.6,1-0.7,3.9,2.3s6.5,2.9,3.6,5.7
		c-2.9,2.8-4.3,6.3-5.8,8.7s-2.2,2.1-5.6,1.5c-3.4-0.7-5.6-3-6.8,0.1c-1.3,3.1,0.4,16.7-0.4,21.4c-0.8,4.7-4.8,13.7-4.8,13.7
		s3.3,2.5-0.3,7.3c-3.6,4.9-4.1,3.5-6.7,5.7C317.4,586.7,316.4,588.6,318,589.3z"/>
</g>
<g id="canar">
	<path id="XMLID_18_" class="st4" d="M314.7,593.7c0,0,2.3,5.3-2.7,5s-8-3.3-12.3,0s-7.5,4.3-10.4,3.7c-2.9-0.7-4.9-1-5.6,2
		c-0.7,3,0.7,3.2-3.3,7.2s-7.3,5-7,7.4c0.5,3.1,3.2,3.3,4,3.3c2.9,0,3.7-4,6.3-4.3c2.7-0.3,5.5,1.3,5.6,4.3s0.8,5.7,3.4,4.7
		c2.7-1,10.7-3.6,11.7,0.2c1,3.8,0.7,14.5,2.7,16.8c2,2.3,3.7-2.3,5,0c1.3,2.3,5,5.3,5.3,3.7c0.3-1.7,0.6-2.7,3.5-1.7
		c2.8,1,3.2,1,3.8-1.7c0.7-2.7,3.3-5.7,5.3-2.7s-0.3,5.3,1.3,6.5c1.7,1.2,3.3-2.5,5.7,3.2c2.3,5.7,0,8.3,4.7,7s9.5-1,10.8-1
		c1.2,0,0.6-4.5,1.1-5.6c1.6-3.7,1.5-5.7,1.5-7.4c0-1.7,0.6-5.1,3.3-4.3c3,0.8,9.5,1,11.7-1c3.1-2.9,6-5.3,5-6.3s3.7-0.7,6.7-2.3
		c3-1.7,7.6-0.1,8.7-1.7s3.2-3.7,1.6-10c-1.6-6.3,3.7-6,0.7-9.7s-7.3-10-7.3-10s-8,1.3-12,1.5s-5.7-0.9-8-0.5
		c-2.3,0.5-6.3,0.3-10.7,7.7c0,0-1-0.1-5,1.9s-4.4,3.6-7.6,2c-3.2-1.6-8.6-3.8-12.2-10c-3.5-6.2-6.8-8.3-6.8-8.3l-5-4L314.7,593.7z"
		/>
</g>
<g id="azuay">
	<path id="XMLID_27_" class="st1" d="M258.6,714.3c1.2,1.4,3.3-0.7,6,0.3s1-3,4.4-3c3.3,0,6.7,1.5,13.4,1.6s15-0.1,14.7,4.2
		c-0.3,4.2-3,13.2,0,12.9s5.3,1.4,6.7,0c1.3-1.3,3.7-6.3,7-1.7c3.3,4.7,5.8,8.3,5.2,11.3c-0.7,3,4.7,8.3,4.7,8.3v1.7
		c0,0,6-0.6,5.2-4.3s-4.4-5.8-2.7-8.7s5.7-2.3,4.3-7.3c-1.3-5-2.5-8.5,2-10s10.7-2.3,10.7-2.3s-4.4-6.7-3-8.3
		c1.6-1.8,2.7,0.5,9.3-2.3s5.6-1.7,8.4-7.3c1.2-2.4,0.6-6.7,5.3-7.3s11-0.1,10.9-5.4c-0.2-5.3-0.2-14.1,2-16.9s10.9-8.3,7.8-12.4
		c-3.1-4.1-6.5-11.5-0.7-12.7s20.3-1.2,18.6-5.7s-2.6-7.6-6.8-6.7c-4.1,0.9-4.8,4.5-6.8,4.7c-2,0.3-6.4,2.8-3.4-2.8s2.4-4.7,2.4-4.7
		s-7.6,1.1-9,3.1c-1.2,1.6,0,3.8-5,6.3c-7.2,3.6-10.4-0.8-13.2,0.8s-0.4,5.4-2.4,9.7c-2,4.2-2,7.9-2,7.9s-10.8,1.4-13.1,1.9
		c-1.6,0.4-0.8-3.7-1.9-6.9c-0.7-2-3.1-4.3-6.1-4.3c-1.7,0-0.1-5.4-1.3-6.5c-1.2-1.1-3.1-3-4.5,0.7c-1.4,3.7-2.6,4-4.6,3.6
		s-3.5,1.7-3.5,1.7s-3.2,0.1-4-1.9c-2.1-4.9-5.2-0.6-6.3-1.8c-1.9-2,0.1-3.1-1.9-10.7c-2-7.6,0.6-9.3-5.1-8.1c-4.5,1-7.3,1.8-8.6,2
		c-3.1,0.5-0.8-4.6-2.1-4.9c-1.4-0.3-6.2,4.7-9.2,8c-3,3.3-14,10.3-15.7,15.3s-1.7,10-7.2,21s-9.5,19.5-9.5,19.5s3.3,3.2,8.7,4.5
		c5.3,1.3,10,3.7,9.3,7s-4,5.3-4,5.3S256.6,711.9,258.6,714.3z"/>
</g>
<g id="loja">
	<path id="XMLID_19_" class="st4" d="M277.3,747.3c0,0,6.3,1.3,6.3-1.7s1.7-2.7,4,0s6.7,3.7,3.3,8.7s-1.3,6-2.7,9.7
		c-1.3,3.7-3.3,7-7,5.7s-3.4-1.3-8.3-1.7s-7.7-1-9-4.3s-5.7-1-6.3,1.3c-0.7,2.3-4,5.7-12.7,6.7s-9.7-0.3-15.7,0s-9.7,3-11.7,4.3
		s-16.7,2-16.7,2s1.7,2.7-3.7,4.7c-5.3,2-6.3,4.7-7.3,7.3s-3.6,0.1-6.3,0c-10.3-0.3-14-2.3-15,1.2s-7.3,5.5-4.7,9.8s4.3,4.9,4.3,9.1
		s0,4.9,3.7,4.2s10-2,11-2.3s-2.7,9-8.7,14.3s-9,12-2.3,17.3s10,3.3,15-3.3c5-6.7,8.7-10.7,12.3-14.7c3.7-4,8.7-2.3,13.7,2
		s10,9.7,13.3,7.7s9-2.3,9.7,3.7s1.3,10.4,7.3,7.7s10.3-7.4,15.3-6.1c5,1.3,6.3,8.3,10,9s4.7-2.7,6.7,0s1.7,6,2.7,9.7s-0.7,7,1.7,10
		c2.3,3,4,5.3,4,5.3s2.7,2.5,4.6-1.8c1.9-4.2,4.4-5.6,5.4-10.6s-0.4-9.4,2-12s5.3-7,10.3-4.7s6.5-0.5,9-2.7s5.4-2.1,5.6-7.1
		s0.9-18.5,0.4-20.4c-0.5-2-7.6-4.2-6.4-9.2c1.2-5.1,4.1-6.7,3.7-10.3c-0.3-3.6-3.2-6.6-2.1-10.9c1.1-4.3,3.2-6.3,2.7-8.3
		s-0.6-7.7-0.6-7.7s-4.3-3.4-5.3-4.7s-2.7-6.4-0.9-7s2-3.1,6.5-5.6s1.8-3.2,0.5-4.8s-1.7-4.5-3.2-8.5s-2.7-7.7-5.2-9.6
		c-2.5-1.9-4.3-1.7-5.7,0s-8,1.7-8,1.7s-2.1,0.3-1-6.3s2.5-9.5-2.9-10.1s-12.4-0.8-12.4-0.8s-3.7,8.2-1.3,10.2c2.3,2,5.7-0.3,6,2.7
		s1,5.7-1.7,6.3c-2.7,0.7-4,2-4,2S278.7,745.3,277.3,747.3z"/>
</g>
<g id="orellana">
	<path id="XMLID_24_" class="st0" d="M756.3,410.7c2,2-0.3,5.7,1.7,7.7s5.1,3,5.6,8s2.1,6.7,1.4,11s1.3,4.7,3.3,6s2.7,4-2,3.7
		s-10.7,2.7-12.7,0s-4.3-9-6-5s-18.7,64.3-18.7,66.3s0.7,3-2.7,2.7c-3.3-0.3-9.3-5.7-14.3-6.7s-8-6-10-7.7s-7.7-3.7-12.7-6
		s-3.3,2.3-10-1.7s-20.7-10-24.3-8.7c-3.7,1.3-14.7,2-17,2.3s-8.7-5.7-11-5.3c-2.3,0.3-4.3,2.7-9-1.3s-7.3-5.7-6.7-9.3
		c0.7-3.7,2.3-10,2.3-10l-12.3,1.7c0,0,5.3,2.3-2.7,4s-13,2.3-15,1.7s-3.3-1-4.3,2.7s-2.7,8.3-7,5.3s-19-7-19-7s0-6.7-1.3-9
		s-0.3-6,1.3-7.7c1.7-1.7,1-4.7-0.3-5.3s3.3-2.7,4-4.3c0.7-1.7-1.9-2.7-5.6-2c-3.7,0.7-7,1-7,1s-0.3-4.3-2.3-4.7s-4.7,0.7-4.7,0.7
		s-3.3-7,0-10.3s8.7-7,8.3-9c-0.3-2-3.3-6.3-6.3-1.6s-3.7,7-6.3,8.6c-2.7,1.7-3,5.1-5,6.5s-8.7,4.1-13.3,5.8c-4.7,1.7-5.3,6-7.7,6.3
		s-14-2-13.3-3.3s6.7-2.3,7.3-4.7s1-7.7,1-7.7s-1.7-7.3,0.7-8.3c2.3-1,0.7-2.6-0.7-3.3s-1.7-5.7-1.3-8c0.3-2.3-2-2-3.7-1.3
		s-6.3-7.7-6.3-7.7s3.3-4.7,4.7-5.7c1.3-1,1-5.7,2-6.3c1-0.7,1.7,1.3,3.3,3c1.7,1.7,9,2,10,4.3s6-0.7,6-0.7l3.7-8c0,0,4.3,1.3,4-1.3
		c-0.3-2.7,1.7-7,1.7-7s3.3,3.7,4.3,3s-0.7-4.3,0.3-6.7c1-2.3,2.7-10.7-1.3-11.7s-3-4-2-7.3c1-3.3-3-9.3-3-9.3s3-5,7-2
		s10.3,4.7,13,4.3c2.7-0.3,6.3,0.7,8.7,2c2.3,1.3,6,1.3,8-1.3s8.7-7.3,10-3s12.7,23.7,16,25.7s17,11.7,18.7,12.3
		c1.7,0.7,2.7-1.7,4.3,0.3s6.3,9,8,8.3s5-1,7.3,1.3c2.3,2.3,5.7,2.3,7.7-0.3c2-2.7,10.3-7,14.3-6.7c4,0.3,11.7-2,13.7,0
		s4,7.3,6.3,9.7c2.3,2.3,11.3,6.7,14,5.7s3.7-5,2-8.3c-1.7-3.3,0.3-6.3,4.7-4c4.4,2.3,10.3,2,12.7,1.7c2.3-0.3,7-1,7.7,2
		s7.3,1.7,9.3,1.7s10,1,10,5.7s4.7,5.7,8.3,4.3c3.7-1.3,6.7,0.7,9,3.3c2.3,2.7,4,1.7,5,1.7S753.5,407.8,756.3,410.7z"/>
</g>
<g id="sucumbios">
	<path id="XMLID_6_" class="st0" d="M704,326.5h11c0,0,12.3-3.2,10.7,2.8c-1.7,6-6,6.3-1.7,6c4.3-0.3,5.7-1,9.3,2.3
		c3.7,3.3,9.3,4,13,3.7c3.7-0.3,9.7,2.3,9.7,2.3s5,2.3,0,5s-9.3,2.7-11.7,2.3c-2.3-0.3-8.1-6-13.2-5s-12.8,0.3-12.8,0.3
		s-2.3,12.3-1,15.3s10.6,13.3,13.8,11.7c3.2-1.7,4.9-8,7.6,0.2c2.7,8.2,6.7,11.5,11.3,13.8c4.7,2.3,12.7,5.3,12,9.7
		c-0.7,4.3,0.7,6.7-1.3,8.7s-4.3,5-4.3,5l-6.3-4.3c0,0-1.3,1.3-5-1.7s-9-2.2-12-2.8c-3-0.6-3.9-1.9-5.4-4.9s0.1-4.9-6.3-5.2
		c-6.4-0.3-10.1,0.9-11.5-0.6c-1.5-1.5-3.4-4.2-7.5-3.8s-11.1-0.7-14.4-1.5s-5.8,0-5.2,2s4.9,8.3-1.4,10.3c-6.3,2-10.9-1-14-5.7
		c-3.1-4.7-2.2-11.2-9.3-10.5c-7.1,0.7-18.4,2-21.7,4.8c-3.3,2.7-4.3,6.4-7.6,4.7c-3.3-1.7-8.8-2.1-10.7-3c-1.9-0.9-8-8.3-8-8.3
		s-0.6,2-4.3-0.3c-3.7-2.3-15.2-8.4-18.7-12.3c-3.5-3.9-9.5-12.2-12.8-18.9c-3.2-6.8-4.4-11.5-9.8-6.8c-5.4,4.7-7.2,6-11.4,4.4
		c-4.2-1.6-4.1-1.5-8.7-2c-4.6-0.5-9.5-3.5-13-4.3s-7,2-7,2l-7.3,7.7c0,0-1.3-2.7-4.7-1.7c-3.3,1-3-4.7-2.3-6s1.5-2-0.4-4
		s-2.6-3.3-4.9-0.7c-2.3,2.7-4.3,1.1-7.7,1.7c-3.3,0.6-6.3,5.6-6.3,5.6s-5.7-3-7.3-2c-1.7,1-2.3-3.7-5.3-1s-6.7,4-6.7-0.7
		c0-4.7,1.7-7.7,1.7-7.7l-4.9-3c0,0-4-2.8-7.8-4.7c-3.8-1.9-10.9-3.3-11.9-6.2c-0.9-2.9,3.3-5.1,8.2-7.4s7.5-2.9,8.7-9.8
		c1.2-6.9,0.5-9,1.9-10.4c0.7-0.7,0.9,3.9,2.8,3.1c1.9-0.8,1.2-4.3,0.6-6c-0.6-1.7-1.8-6.2,4.7-12c6.5-5.8,15.7-7.7,13.6-10
		c-2-2.3-10-6.2-6.3-7.3c3.7-1.2,9.3-1.7,12.7,0c3.3,1.7,5.3-0.7,8,1s4.7,3,3.7,7s-2.7,7.4-1,9.4s-0.7,1.6,0.7,6c1.3,4.3,4,6,5,7
		s3.3,6.3,5,3.7c1.7-2.7,7-3,14-1s7.3-0.3,12-1c4.7-0.7,2.7-0.2,7.3,5.4c4.6,5.6,3.7,2.9,7.7,3.9s14.7,5.7,19.3,4.3
		c4.7-1.3,5.7-3.7,8-2s5-1.3,5.7-2.3s9-0.3,12.7,3c3.7,3.3,6.7,2,9,1s4.7,0.3,8.7,0.3s9.5,4,9.3-0.3c-0.2-4.3-2.1-16.7,0-17
		c2.1-0.3,5.4,0.3,8.1-2.3c2.7-2.7,2-1.3,11.7,1.7s13.3-1.7,14.7,2.3c1.3,4,6,0,8.7,3s7.7,13.7,11.7,18C689,315,702,326.5,704,326.5
		z"/>
</g>
<g id="napo">
	<path id="XMLID_17_" class="st4" d="M550.3,458.6c0,0-7.2,2.7-16.5,4s-68.9,13-70.9,13.4c-2,0.3-1,1.7-2.3,3s-9.6-1-15.6-2
		s-8.3-2-11.7-4c-3.3-2-1-8-6.7-8s-6.9,3.3-7.9,2.3s-1.5-3-4.1-2.3c-1.2,0.3-3.1,0.9-3.4-0.8c-0.3-1.7-1.9-4-0.6-7.3
		c1.3-3.3,3.3-9.2-2.3-8.4c-3.3,0.5-5.8,1.5-6.3,0c-0.4-1,0.7-0.8,0-4.2c-0.7-3.3-2.7-7,0-10s5-11.7,1.3-15.3
		c-3.7-3.7-4.7-6.3-4.7-6.3c2.7-3,4-5.3,6.7-4.2c2.7,1.1,3.2-0.3,3.2-0.3l2.6-8.7h4c0,0,4.1-4.5,3.9-13.2c-0.2-8.6-0.1-9.7,3.1-13.2
		s2.1-7.5,3.1-12.1c0.9-4.6,0.9-6.7,3.8-6.2s7.1,3.9,8.4,3.1c1.3-0.8,1.4-3.8,2.2-5.6c0.9-1.9,5.9-2.8,8.6-4.1
		c2.7-1.3,5.8-2.5,9.2-1.3c2.9,1.1-1.5-11.8,1.9-12.4c10.7-1.8,8.8-4.3,8.8-4.3l4.9,3c0,0-2.9,5.9-1.5,9.3c1.5,3.4,6.5-0.9,6.5-0.9
		l3.8,0.5l8.9,2.5c0,0,5.4-5.3,8.7-5.6s7.7-3.2,7.7-3.2l2.6,2.1c0,0,0.8,0.1,0.4,4c-0.4,3.9-0.9,5.8,2.3,6c3.2,0.2,4.7,1.7,4.7,1.7
		l7.3-7.7c0,0,2.9,3.6,3,6.5c0,2.9-2.9,7-0.5,8.6c2.5,1.6,6.2-0.8,5,6.2s-1.5,13.7-1.5,13.7l-4-4.3c0,0-1.8,4.4-1.9,6.3
		c-0.1,1.9-2.1,4.7-4.1,3.3c-2-1.3-0.7,1.5-2.2,4.8c-1.5,3.2-7.5,3.9-7.5,3.9s-2.1-1.2-6.1-2.8c-3.9-1.6-6.2-8.5-7.3-4.6
		c-1,3.9-2.9,7-4.8,9.5s-1.3,4.1,0.8,6.8c2.1,2.6,6.8,3.1,6.8,3.1s0,0.6,0.5,4.3c0.5,3.7-1.9,3,1.4,5.3s1.9,0,0.7,3.3
		s-0.2,6.7-0.9,11.3c-0.7,4.7,0.9,4.7-3.6,7s-6.3,3.7,1.3,4.6s9.1,1.1,12.5-3.8s12.9-2.6,16.1-7.4c3.2-4.7,3.2-2.5,6.8-8
		c3.6-5.6,4.9-9.7,6.9-9.2s6.5-0.1,4,3.7c-2.6,3.8-6.9,5-8.3,9c-1.5,4,0,10.3,0,10.3s2.9-2.7,4.7-0.7s2.3,4.7,2.3,4.7
		s9.6-1.8,11.1-1c1.4,0.8,2.4,1.1,0,3.7c-2.6,3-2.6,3-2.6,3s3.4-0.9,1.3,3C552.2,449.9,547.4,453.5,550.3,458.6z"/>
</g>
<g id="pastaza">
	<path id="XMLID_10_" class="st3" d="M726.3,511c0,0,1-5-9.3,8.3s-39.3,49-44,55.3s-10.7,9.7-29.3,24.3c-18.7,14.7-40,31.3-40,31.3
		s1.3-2-2-3.3s-5.7,2.7-8.3,1.7c-2.7-1-7-1.3-9.7-3.3S582,623,578,624s-12.3,0.7-15.7-2.3c-3.3-3,0.3-6.7-3.3-9.3
		c-3.7-2.7-7.7-14.3-13-15.7c-5.3-1.3-6.3-1.7-9.7-4.7c-3.3-3-9.3-9.3-17-12s-13.7-1-16.3-4.3c-2.7-3.3-12-6.7-16.3-8
		s-6.7-2.7-10.3-7.7c-3.7-5-8-2.7-9.7-6s0-6.7-1.7-8.3c-1.7-1.7-0.7-5.3-2.3-7.7c-1.7-2.3,0-6-2.3-9.7s-4-6.3-9.3-5.7
		c-5.3,0.7-8.3,3.3-10.7-5.7c-2.3-9-9.7-18-9.7-18s-2-3.3,0-5.3s4.3-2,2-8s0.7-12.7,0.7-12.7s12.4,4.2,17.7,5.2s9.6,0.8,9.6,0.8
		s0.2-2.6,2.3-3s48-9.2,48-9.2l41.8-8.7c0,0,1.3,4.9,0.6,6.9c0,0,15,3.7,19,7s5.7-1.7,5.7-1.7s2.2-7.1,3.9-6.7s6.7,0.6,9.6,0.1
		c2.9-0.5,13.1-2.7,11.4-4c-1.6-1.3-1.6-1.3-1.6-1.3l12.3-1.7c0,0-4,5.1-2.3,10s6.8,12,10.5,11.5c3.8-0.5,6.4-0.9,8.4,0.4
		c2,1.2,7.7,4.1,7.7,4.1s7.3-0.6,10.3-1.1c3-0.4,7.4-3.8,10-2.2s13.1,5.3,17.1,7.5c3.9,2.2,6.9,2.8,10.4,3.3s11.3,3.6,13.7,5.1
		s5.1,4.8,7.1,6.3c2,1.5,7.5,3.2,10.7,5.1C720.6,508.4,726.3,511,726.3,511z"/>
</g>
<g id="morona">
	<path id="XMLID_8_" class="st3" d="M596.9,633.3c0,0-67.3,22.5-85,28.5s-38.3,7.6-49.6,17.6s-18.7,20.3-20.7,22.3s-4.7-2-5,0
		s4,5-2.7,10s-13,6.3-7.7,12s10.3,12.3,6.3,13s-5.3-4.7-8.3-1.7s-6.2,4.7-5.6-0.7c0.6-5.3,2.5-11-2.2-10.3s-10.1,4-10.1,9
		s0,5.5,0,5.5H385c0,0-4.7,2.8-8.3,2.5c-3.7-0.3-9,4.7-9,4.7s-2.7-2.3-8.7-3.7s-11-4-14-10.7s-1.7-12.3-5-14s-3-8.3-3-8.3
		s11-2.7,14-3.7s1.7-3.7,3.7-6s0.7-6.7,5.3-7.3s10-1,10.7-4s-0.3-7.3,0-10.7c0.3-3.3,1.3-7.7,4.3-10.3s8.3-6.7,5.7-9.7
		c-2.7-3-4.7-6-3.7-7.7s0.7-3.7,3-5s19.5-1.7,18.6-5.7s-1.7-4.9-3.6-6.4c-3-2.3-12.1,6.9-13.8,5.2c-1.7-1.7,0.1-4.5,1.1-5.8
		c1-1.3,1.8-2.3,2.8-2.5c1.4-0.4,4.2,1.5,5.2-0.8c1-2.3,4-2.5,2-7.7c-2.7-7,1.3-8.9,1.3-10.3c0-1.4-2.6-3.4-3.9-5.4
		c-1.6-2.4-5.6-4.9-4.3-6.3c0.7-0.8,2.3,0.7,3.3-2.7c1-3.3,2.3-5.3,3.7-6.3c1.3-1,3-5,0.3-6.3s-4.2-4.4-3-5.3c1.2-1,3.7,1,6.3-1.3
		s4.5-3.3,2.6-5.3s0.6-7.7,0-9s-4.6,1-5.3-1.7s0.7-2.7,2.3-4.7c1.7-2,5-7.3,6-9.3s-2.7-10-5-10.7s-1.5-2,1.9-5.3s4.7-3.7,6.7-7.3
		c2-3.7,0.3-6.7,1-10.3c0.7-3.7,2.5-6.5,2.5-6.5s3.5-0.2,5.2-1.9s0.1,3.7,4.7,2c4.6-1.7,6.6-2.7,7.3-5s4.7-3,4.7-3s4.6,5.3,6.9,10.9
		c2.3,5.6,2.8,13.8,6.7,13.5c4-0.2,9.8-1.9,12,0.1c2.2,2.1,4.6,7.2,5.5,10.8s3.2,11.3,3.2,11.3s0.1,2.3,0.9,5.3s3.3,4,6.3,5.8
		c3,1.8,5,6.4,9.1,8.4s16.4,6,19.1,8.2c2.7,2.2,5.3,3.5,12.1,5c6.9,1.5,15.3,5.7,20.4,10.3s13.3,7.5,14.7,8.6
		c1.4,1.1,9.7,9.3,11.5,15c1.8,5.7,1.8,10,6.4,11s7.6,3.3,14.6-1c0,0,3.7,3.8,8.5,5c4.8,1.2,10.2,0,13.2-0.4s6.3,0.7,2,3.3
		C599.3,633,596.9,633.3,596.9,633.3z"/>
</g>
<g id="zamora">
	<path id="XMLID_13_" class="st4" d="M406.5,738.5c0,0,5.5,6.8,0,20.5s-11.5,15-15.2,25.3s-10.3,20-9,28.3s1.3,8-2.7,11.3
		s-6.7,6-4.3,12c2.3,6,5.3,0.3-0.7,14s-6.7,17.3-13.7,17.3s-12.3-4.3-16,5.3c-3.7,9.7,0.3,10.3,0,12.3s-2.3-0.3-5.7,6
		c-3.3,6.3-0.7,7-6,10.7s-5-2.7-10-1.7s-16.3,0.7-18.7,1c-2.3,0.3-4.3-10.3-8-10.7c-3.7-0.3-6.7-2.3-9-6s-4-9.7-4-9.7s4.7,0,5.7-3.7
		s1.7-3.7,4.3-8.7c2.7-5-1-8,2-12s7.3-6.7,10.3-4.7s6,0.7,9-2.7s5.7-2.3,5.7-8.7c0-6.3,2-19.3-1-22.3s-6.7-5-4.7-9.3s4.3-5,3-10.3
		s-3-9-0.7-11.7s1.7-3.7,1-6s2-4,0-5.7s-6-4.3-7.3-8s1.3-3.7,3-4.3c1.7-0.7,2.8-3.8,4.7-5c3.6-2.3,6.3-2,7-6s-3.3-5-2.7-8.7
		s5-3.7,4.3-7.3c-0.7-3.7-3.7-7.7,2-10s11.7-3.6,12.6,0c0.8,3.6,1.4,12.3,5.7,16s11.5,5.8,14.9,7.3s5.1,2.7,5.1,2.7s3.7-3.6,9-4.7
		s8.3-2.5,8.3-2.5h21.8V738.5z"/>
</g>
</svg>
