<?xml version="1.0" encoding="utf-8"?>
<!-- Generator: Adobe Illustrator 19.0.0, SVG Export Plug-In . SVG Version: 6.00 Build 0)  -->
<svg version="1.1" id="Galapagos" xmlns="http://www.w3.org/2000/svg" xmlns:xlink="http://www.w3.org/1999/xlink" x="0px" y="0px"
	 viewBox="-150.5 321 197 169.5" style="enable-background:new -150.5 321 197 169.5;" xml:space="preserve">
<style type="text/css">
	.st0{fill:#FDCAE1;stroke:#727272;stroke-miterlimit:10;}
</style>
<g id="galapgos">
	<path id="XMLID_14_" class="st0" d="M-120,364c0,0,0,0.3-5.7,2.3s-3,2.7-7.7,6c-4.7,3.3-7.7,3-6.3,5.3c1.3,2.3,1.7,4.3,4.7,2.7
		c3-1.7,7.2-5,7.7-1.3s0.9,6.7,2.3,10.3c1.3,3.7-2.3,2,1.3,7.7c3.7,5.7,6,8,8.7,8.7s3.3,1,2.7,3.7c-0.7,2.7,2,5,6,8.3s8.7,4.3,5,6.7
		c-3.7,2.3-4.3,6.7-7.7,5.3c-3.3-1.3-4-0.2-8,0.2s0.3-4.2-7.3,3.4c-7.7,7.7-13,8.7-10.3,12s3.7,1,5,5.3s5.3,5.7,7.3,5.3
		s7,0.7,9.7,1.7s6-0.3,7.7-1.3s10.3-4.3,12.3-5s3.3,1,6.3-1.7s5-7.3,5.7-9.3s4.7-3,2.7-5.3s-5-8-7-10.3s-6.3,3-5.7-1.7
		c0.7-4.7,4.3-6.6,0-12c-4.3-5.3-8.3-5-11.7-10c-3.3-5-6.4-3.7-6.4-11.7c0-8,1-9.7-3-12.7s-5.3-2.7-6-6.3
		C-118.3,366.7-114.3,361.7-120,364z"/>
	<path id="XMLID_11_" class="st0" d="M-39,407c0,0,2.7,5.7-2,7.3c-4.7,1.7-13.7-0.3-16,3.3c-2.3,3.7-5,11-2,12.3s9.1,2.3,9.7,4.7
		c0.6,2.3,5,4,8.3,2s5.7,0.3,7.7-3.7s6-7.1,3-10.7C-33.3,418.7-33.7,405.7-39,407z"/>
	<path id="XMLID_29_" class="st0" d="M18.7,441c0,0-3.3,2.7-5.7,4.3c-2.3,1.7-0.7,3.7,2.8,4.7s9.5,1.7,11.8,0s4.3-4,6-7s2-3.5,5-5.4
		s5.3-6.2,2-6.6c-3.3-0.3-5.7-4.3-8.3-1.7c-2.7,2.7-6,3.7-7,6.7S20.8,439.4,18.7,441z"/>
	<path id="XMLID_30_" class="st0" d="M-80.3,389c0,0,0,3.3-2,5.7c-2,2.3,0.3,3.7,1,5.3c0.7,1.7,1,0.3,7,2s8.7,2.3,9.7,2.7
		c1,0.3,5.3-4,6.7-5s-1.7-4.7-4.3-6C-65,392.3-77,385-80.3,389z"/>
	<path id="XMLID_28_" class="st0" d="M-145.3,399.3c0,0,0.4,1,5.3,0s5-5.2,8.3-3.1s7,1.4,7.3,6.1s-2.7,6.1-1.7,8.4s3.8,3-1.3,4
		s-7.7,1-11.1,0c-3.3-1-3.3-1.7-5.7-5.3C-146.3,405.7-148.3,400.7-145.3,399.3z"/>
	<path id="XMLID_31_" class="st0" d="M-57.7,350c0,0-2,1.3,0,3.7c2,2.3,5,4.7,7,3c2-1.7,4-6.3,1.7-6.7S-53.7,344.7-57.7,350z"/>
	<path id="XMLID_33_" class="st0" d="M-79,326c0,0,1.7,4,0,7s1.7,2.7,4,1.3C-72.7,333-74.3,325.7-79,326z"/>
	<path id="XMLID_34_" class="st0" d="M-54.7,472.7c-1,2.3-2.7,5.3-3,6.3s1,3.7,6,3.3c5-0.3,5.1-0.3,6.9-3.3s-0.1-4.7-3.2-6.3
		C-51,471-54.7,472.7-54.7,472.7z"/>
	<path id="XMLID_32_" class="st0" d="M-24.5,441.5l5,1.2V440l-3.8-2.4C-23.3,437.6-27.7,438.3-24.5,441.5z"/>
	<path id="XMLID_36_" class="st0" d="M-70.4,424.3c0,0,1.4,3.3,2.7,2.7c1.3-0.7,2-3.9,0-4.8S-68.5,422-70.4,424.3z"/>
	<path id="XMLID_35_" class="st0" d="M-143.3,357.2c0,0,2.7,0.4,3.3-1.6S-144.3,352.1-143.3,357.2z"/>
	<path id="XMLID_37_" class="st0" d="M-74,410.7c0,0,4.5,2.7,5.6,0C-67.3,408-70.9,404.1-74,410.7z"/>
	<path id="XMLID_38_" class="st0" d="M-15,353.8c0,0,1,3.3,3,3.4C-10,357.3-9.3,349.6-15,353.8z"/>
	<path id="XMLID_40_" class="st0" d="M2.3,482.4c0-6.1,8.5-4,9.6,0s0.4,6-1.9,5.3C7.7,487,2.3,488.4,2.3,482.4z"/>
</g>
</svg>
