<?xml version="1.0" encoding="utf-8"?>
<!-- Generator: Adobe Illustrator 19.0.0, SVG Export Plug-In . SVG Version: 6.00 Build 0)  -->
<svg version="1.1" id="Layer_1" xmlns="http://www.w3.org/2000/svg" xmlns:xlink="http://www.w3.org/1999/xlink" x="0px" y="0px"
	 viewBox="0 0 666.5 730.5" style="enable-background:new 0 0 666.5 730.5;" xml:space="preserve">
<style type="text/css">
	.st0{fill:#AB2C7D;stroke:#F1F1F1;stroke-miterlimit:10;}
</style>
<path id="XMLID_1_" class="st0" d="M251.3,0c0,0-9.3,10-6.7,13.3c2.7,3.3,6.4,6.7-0.5,8.7s-6.9,1.3-9.5,6.7c-2.7,5.3-2,2.7-5.3,0
	c-3.3-2.7-5.3-4-7.3-3.3c-2,0.7-7.3,13.3-15.3,14c-8,0.7-14-1.3-21.3,0c-7.3,1.3-5.3,3.3-12.7,7.3c-7.3,4-14,5.3-17.3,4
	c-3.3-1.3-3.3-5-9.3,0.5s-6,12.8-12.7,12.2c-6.7-0.7-4.7-4.6-13.3,0s-12.7,5.3-14.7,10c-2,4.7-4,9.3,0,12c4,2.7,8,1.3,8,8
	c0,6.7,0,10.7-3.3,12.7s3.3,6,2.7,8.7c-0.7,2.7,2.7,9.3,2.7,9.3s-4,8,0,8.7c4,0.7,2,5.3,7.3,0c5.3-5.3,9.3-6,12-6
	c2.7,0,6.7-3.3,5.3-7.3s10-5.3,8,0c-2,5.3,0,11.3,2.7,12.7c2.7,1.3-0.7,4.7-2.7,8s0.7,8.7,4.7,6.7s5.3-0.5,10,0.4
	c4.7,0.9,5.3,6.2,8.7,6.2c3.3,0-1-5.3,5.8-2.7c6.8,2.7,10.2,8,12.2,2.7c2-5.3,6.7-11.9,4.7-15.3c-0.6-1.1-4.2-1.1-4.4-2.4
	c-0.2-2,2.9-4,5.6-6.8c3.3-3.5,5.4-6.8,5.4-6.8s4-4.6,12.7-1.3c8.7,3.3,16.7,3.3,21.3,1.3c4.7-2,16,2.7,16.7,0
	c0.7-2.7,4.7-9.3,8.7-7.3s4,6.7,7.3,3.3c3.3-3.3,9.3-7.3,12.7-12.7c3.3-5.3,5.3-6,9.3-6s7.3-4.7,5.3-9.3s-8.1-8.5-8.7-12.2
	c-0.7-5,5.3-5.8,5.3-8.5c0-2.7,0.7-6-4-8.7c-4.7-2.7-7.3-5.3-6.7-12.7c0.7-7.3,7.3-14.7,5.3-18.7s-4-4.7-10.7-10
	C268.7,14,251.3,0,251.3,0z"/>
<path id="XMLID_61_" class="st0" d="M238.4,175.9c0,0,1.3-0.8,5.3,0.1s5.6-0.3,4.8,2c-0.8,2.3,0.8,6.3,2.9,7.7
	c2.1,1.4,7.6,4,7.3,6.4c-0.2,2-4.4,2.6-5.8,5.7c-1,2.3-11.2,3.6-13.8,1.6c-1.2-0.9-1.4-0.6-3.3,0.7c-2.4,1.6-2.3,3.9-3.7,6.4
	c-1.4,2.5-5,5.5-4.6,8.1c0.4,2.5,2,4.2,2,7.6s1,5.2-1.3,6.2c-2.3,1-4.6,0.5-4.6,0.5s-0.1-3-1.4-4.2c-1.3-1.2-3.5-3.9-4.5-2
	s-4.9,4-6.8,5.5c-1.9,1.5-2.1,3.4-3.8,5c-1.7,1.6-5.4,4.2-7.9,5.1c-2.5,0.9-4,1.5-8.1,0.4c-4.1-1.1-6.6-1.1-5.7-2.7s2.7-2.2,3.9-4.2
	c1.2-2,3.4-4.4,1.6-6.1c-1.8-1.7-7.1-0.5-9.4,0.2c-2.3,0.7-7.8,1.5-7.8,1.5s-1-2.2,0-4.1c1-1.9,3.4-6.7,5.8-9.9
	c2.5-3.2,7.6-6.7,7.3-10.4c-0.3-3.7-2.3-7-2.5-9.4s0.2-9.5-1.5-10.6c-1.7-1.1-7.2-4.5-9.6-3.8c-2.3,0.7-3.9,2.5-5.7,0.7
	s-4.4-2.9-5.3-3.9c-0.9-1.1-1.9-1.3-2.2-5.4c-0.3-4.1-2.4-12.7-2.4-12.7l6.8-10.3c0,0,1.4,0.8,2.8,2.5c1.4,1.7,2.8,2.8,4.1,3.1
	c1.3,0.3,1.2-1.6,1.6-2.3c0.4-0.8,1.4-1.4,3.1-0.7c1.7,0.6,5.8,3,7.7,4c1.9,1,3.3,2.8,4.4,0.9c1.1-1.8,1.2-1.8,2.3-1.3
	c1,0.5,6.2,2.5,10.7,2.8c4.5,0.3,10.9-0.3,12.8-1.1c2-0.8,4.2-2,5-0.6c0.8,1.4,1.6,1.1,0.8,3.9c-0.8,2.8-2.2,6.8-0.8,8.2
	c1.4,1.4,4.3,2,5.5,1.5c1.2-0.5,3.9,2.3,6,3.1c2.1,0.8,3.4,0.3,5,1.6C237,174.6,238.4,175.9,238.4,175.9"/>
<path id="XMLID_20_" class="st0" d="M113.9,120.5c0,0-4.6-2.4-3.9,0.2c0.7,2.6,1,11.3,1.7,17.3c0.7,6,0,12.6-3.7,17.7
	s-6.3,6.5-9,11.1c-2.7,4.6-6.7,7.9-10,11.6s-10.7,4.9-10.7,4.9h-1.7c0,0-0.7,2-3.3,4.3c-2.7,2.3-4.3,1.8-4,5.4
	c0.3,3.7,0,4.4-2.7,7.3c-2.7,2.9-7.7,1.8-7,5.2c0.7,3.3,2,7.3,3.7,8.6c1.7,1.3,1.3,8.3,2.7,10.3s0.7,5.4,4.3,8.2
	c3.7,2.8,4.7,1.5,7.7,2.1c3,0.7,3,3-1,3.7c-4,0.7-7.7,0-9-3s-1.7-8.6-5-2.8c-3.3,5.8-6.7,24.1-9.3,29.1c-2.7,5-7.3,8-10,7
	c-2.7-1-3.7-1.3-7,0.2c-3.3,1.5-3.7,0.2-5.7,0c-2-0.2-5,2.5-7.7,2.8c-2.7,0.3-1.3-4.3-4.3,0c-3,4.3-8.3,5.3-7.7,10.3
	c0.7,5,3.3,14.3,8.3,19.5c5,5.2,11,9.8,11.3,13.2c0.3,3.3-2,5-1.3,7c0.7,2-2.7,3.7-2.7,3.7s4,6,0.7,6s-7.3,0.4-5.7,3.8
	s0.7,6.2-1.7,6.5c-2.3,0.3-3.3,1.7-1,5.7s4,7,4,7s3.7,1.3,7.3,0c3.7-1.3,9.3-0.4,11-2.9c1.7-2.5,4,0.1,7.3,0
	c3.3-0.1,7.7,4.7,13.7,3.5c6-1.3,6.3-6.7,13.7-3.5c7.3,3.2,3,5.5,7.3,3.2c4.3-2.3,6.3,1.2,7.7,0.9c1.3-0.3-0.3-4.3-1.3-8.6
	s-1.7-6.9,1.3-8.3c3-1.4,3-1.4,3-1.4s-4-0.7-2.7-4.3c1.3-3.7,3-5,0.7-7.7c-2.3-2.7,6.3,0.7,6.3-4.3s-4.3-7.3,2-9.7
	c6.3-2.3,8.7,1.7,12-5.3c3.3-7,3-13.9,3-13.9h7c0,0,6.7-1.1,4.7-0.2c-2,0.9,8.3-5,10-11.7c1.7-6.7,6-8.1,5-12.5
	c-1-4.3,0.7-8.1,3-7.1c2.3,1,7,4.6,7,4.6s2,2.3,3.3-0.3c1.3-2.7,3-1.3,4.7-3c1.7-1.7,4-1,3.3-6.3c-0.7-5.3-2.8-14,0.1-12.3
	c2.9,1.7,5.2,4,5.5-0.3c0.3-4.3,3-9.3,4-10.5s0-3.5,0-5.9c0-2.3,0-3,2.3-6.7c2.3-3.7,4-7.3,7-10.3s5.8-9,3.2-11.3
	c-2.6-2.3-1.2-14.9-3.6-15.8c-2.3-0.9-8-4.9-11.3-2.5c-3.3,2.3-3.3-1.3-6.7-2.7c-3.3-1.3-4.3-4.3-4.3-8c0-3.7-2.3-11.3-2.3-11.3
	l6.8-10.3c0,0-6.8-2.8-10.2-1.7c-3.3,1.1-5.6,3.7-6.8-2c-1.2-5.7,4.7-7.1,3.9-9.6c-0.8-2.5-3.3-2.8-3.8-7c-0.5-4.1,3-9,0.3-10.3
	c-2.6-1.3-8.1-0.8-8,2.1c0.1,2.9-0.4,5.8-2.9,6.6s-4.7-1.1-9.6,2.8c-4.9,3.9-9.1,6.1-9.1,6.1l-4.6-3.3l1.5-7.5L113.9,120.5z"/>
<path id="XMLID_58_" class="st0" d="M172,258.3c1,3,0.3,3,0,7s0.4,5,0.5,7.3c0.1,2.3-4.2-0.3-2.9,3.5c1.3,3.8,1,8.2-3.3,8.2
	c-4.3,0-6,0.7-8,3.3c-2,2.7-5.7,0.5-7.3,3.8c-1.7,3.2-1,4.6-3.7,5.6c-2.7,1-0.7,0-3,4.5c-2.3,4.5-11,16.5-13,25.2
	c-2,8.7-2.3,11,0,13.7c2.3,2.7,2,3.3,0.3,3.7c-1.7,0.3-4.9,4-2,5.7c3,1.7,4.6,5.3,4.3,6s-1.3-1.6,3.3,1.4c4.7,3,8.3,6.3,9.7,10.7
	c1.3,4.3-0.6,4.3,3.5,7c4.1,2.7,5.5,4.3,9.8,3.3c4.3-1,9.1-5,12.2-2.3c3.1,2.7,5.5,6.6,7.5,6.6c2,0,2.7,1.4,4,2.4s5.8,4.6,8.3,8.9
	c2.5,4.3,2,6.1,4.4,6.4c2.3,0.3,4-1.3,6,1.7s5,4.7,5,4.7s-0.2-6.2-2-9.6c-1.7-3.4-7.2-6.6-6.6-9.4c0.6-2.7,2.9-4.6,3.6-7.6
	c0.7-3-1.1-10.1-0.7-12.1s1-6,1-6s-0.3-3.7-1.4-6s-5.2-4-7.8-5.7c-2.5-1.6-0.7-1.4,3.8-4.5c4.5-3.1,5.9-5.9,3.1-6.7
	s-7.4-0.4-7.8-3.5s-0.3-7.8,0.7-12.6c0.9-4.8-2.3-11.1-4.3-10.5s-4.9,1.3-3.4-0.7c1.5-2,2.8-4.3,4.8-7.1s5.6-5.4,5.6-5.4
	s-2.2-4.2-4.5-6.4s-4.8-4.1-4.3-8.1c0.4-4,3.5-7.9,7.9-13c4.3-5.1,6.9-7,4.9-8.9c-0.8-0.8,2.9-2.9,3.4-4.1c0.4-1-1.8-2.6,0.9-4.1
	c2.8-1.5,9.1-4.2,4.4-4.9c-4.7-0.7,5.3-2.8,6.7-9c1.3-6.2,2-9.4,2-9.4s1-3.5,4.3-2.6c3.3,0.9,0.7-4.4-2.1-5.4s-0.8,0.7-5.9,3.3
	c-5,2.7-6,4.1-6.7,6.2c-0.7,2.1-2,2.3-4.7,3.5c-2.7,1.3,0.3,0.3-3.5,2.3c-3.8,2-6.5,0.7-9.8,0c-3.3-0.7-5.9-2-1.9-4.7
	c3.9-2.7,5.3-8.7,1.9-9c-3.3-0.3-10,2-10,2s-6-0.1-5.9,1.4c0.1,1.1,2.2,0.2-0.1,4.5c-2.3,4.3-3.4,6.3-3.7,8.4
	c-0.3,2.1,0.4,6.1-2.7,4.3s-5.3-3.7-4.4,2.5c0.9,6.1,0.4,12.6,0.4,12.6s6.1-2.2,6.8-2.5C170.3,257.3,172,258.3,172,258.3z"/>
<path id="XMLID_22_" class="st0" d="M49,351.5c0,0-0.3,3.9,0,9.2c0.3,5.3,0,9.3,2.7,14.3c2.7,5,3.7,7.6,8,7.3c4.3-0.3,7.3,1.7,9.3,4
	c2,2.3,3-1.3,6,4.7s5.7,8,8.7,8.3c3,0.3,2.7-1.7,3.7,5c1,6.7,4.3,13,1.3,12.7s-3.7,1.3-0.7,4s1.7,5-1.3,6.3c-3,1.3-7-3-9,0
	s-7.9,6.7-8.3,4.7s-2-0.5-3,0.6c-1,1.1,2,4.4-1.7,9.4c-3.7,5-8.7,1.3-10,3.3c-0.8,1.3-3,2-4.4,2.4c-0.8,0.2-1.4,0.3-1.4,0.3
	s-7.5-12-10.5-11.7c-3,0.3-3.7-0.7-8-1.3s-8-4.3-10-5.7c-2-1.3-5.7-4.7-6.7-2.7s-1.1-1.3-2.4-3.7S0,411.5,0,411.5s2-2.2,4,0
	c2,2.2,0.9,7.2,7.3,4.2s9.7-5,12.1-6.7s10.3-9,8.3-13.3c-2-4.3-3.3-8.3-3.3-8.3s1-0.7,3.3-2.3s0-11.3-2.3-17.3s-6.3-10-6.3-10
	l0.3-3.3c0,0,2.6,0.9,7.3,0c4.7-0.9,9.8-1.9,11-2.9C42.8,350.5,49,351.5,49,351.5z"/>
<path id="XMLID_55_" class="st0" d="M70.7,463.7c0,0,1,0.7,5.3,5.3s8.3,8.7,10.7,6c2.3-2.7,0.3-5,0-9c-0.3-4-1.2-3,3.2-6
	s11.4-4,13.4-10s1-4.8,4.3-10.8c3.3-5.9,3.3-9.9,7-10.6c3.7-0.7,10-8.3,9.3-4.7s-6,6.3-7.7,7.7c-1.7,1.3-0.3-3.7-2,4.7
	c-1.7,8.3-6.7,14-2,11.7c4.7-2.3,4.7,0,6.7,0s4.8-3,5-5.3c0.3-2.3-6.4,6.7-4,9c2.3,2.3-1.3,7.3,2.7,6.3s4.3-2.3,5.8-6.3
	c1.5-4,4.8-14,4.8-19.3c0-5.3,1-7-2-11.3s-3-6.4-2.8-9.5c0.2-3.1-4.8-9.1,0-9.8c4.8-0.7,6.8,2,7.5-2.2s2.7-4.8,5.3-5.8
	c2.7-1,6,0.7,3,2.3s-1.6,4.4-5.4,5s-9.3,7.3-7.3,10.5c2,3.2,2.7,6.9,3,10.5c0.3,3.7,2.2,5.5,0.3,9.3c-1.9,3.9-1.7,2,0.7,5.7
	c2.3,3.7,5.3,16,7,13c1.7-3,5-7.7,5.3-3.7s2.3,7.7,0,8.7s-4.7,1.3-3.7,4.3s3,6,0,6.3c-3,0.3-6.5,0.7-5.4,3c1.1,2.3,0.9,4.7,0,9.7
	c-0.9,5-0.9,9-2.9,11s-2.7,0.3-3.3,6c-0.7,5.7,1,9.3,0,11c-1,1.7-2.7,4.3-2.7,4.3s3.7-0.3,6,0c2.3,0.3,8.3,3.2,8.3,3.2
	s4.4-9.1,7.3-15.2c3-6,6.1-14.2,8-20.3s1-6.3,4.5-9.5c3.5-3.3,14.7-13,14.7-13l7.1-5.8c0,0,0-3.8-4.1-4.3c-4.1-0.5-5.6,4.1-7.8,4.3
	c-1.3,0.1-4-1.8-4-3.3c0-1.2-0.3,0.1,4.8-5.5c5-5.6,6-10.4,7-11.4c0.7-0.7-0.5,0.3,4.2,0.2c6.2-0.2,8.9-1.6,12-4.6
	c3-3,5.8,2.6,10.8,0.9c5-1.7,2.4-3.6,2.7-5c0.3-1.3,3.1-2,3.3-4.3s3-5.7,3-5.7s0.2-2.6,0-4.3s-2.3-5-4-3c-1.7,2-1.3,6.3-3.7,4.3
	c-2.3-2-4.5-2.8-5.8-4.8c-2.2-3.4-5.4-2.8-7.5-3.5c-2.1-0.7-3.4-6.7-8-11c-4.6-4.3-5.8-4.9-8.6-6.7c-2.8-1.8-5.5-9.1-10.3-7.5
	s-8.9,4.5-12,3.5c-3.1-1-9.4-3.6-10-7.1s-3.5-9.6-7.5-12.2c-4-2.7-4.3-3.6-7.4-6.4c-3.1-2.8-4.1-6.8-2.6-7.6s3.5-3.1,1.5-6.1
	c-2-3-1.9-12.6,4.2-22.9c6.1-10.4,8.1-16.6,9.8-17.7s4-5.2,5.3-6.6c1.3-1.5,4.8-1.4,7.3-3.8s5.2-2.4,8-3.3c2.8-0.9,4.7,0.2,4-4
	c-0.7-4.2,0-7,2.2-7.7c2.1-0.7-1-3.6-0.5-7.3c0.5-3.7,2.6-8-2.3-7.7c-5,0.3-2.9,0.1-9.3,4.3c-6.4,4.3-3.5,6.1-9.3,2.4
	c-5.7-3.7-8.5-6.9-8.6-1.8c-0.1,5.1-2.2,9.8-3.6,13.6c-1.5,3.8,1.7,2.9-3.7,8.2c-5.4,5.3-6.4,7.4-10.8,7.1c-4.3-0.3-8.7-0.3-8.7-0.3
	s-0.9,11.1-3,14.4s-3.6,3.6-8.4,4.9c-4.8,1.4-8.3-0.8-7,4c1.3,4.9,3,7.8-0.9,9.3c-4,1.5-1.7,2.2-3.2,5.7c-1.5,3.5-4.5,3.5-1.6,5.7
	c2.8,2.2,5.2,2.2,5.2,2.2s-6.1-0.4-6.8,2.5c-0.7,2.9,0.3,12.7,1.9,14.3c1.6,1.6-3.8-0.9-6-0.1c-2.2,0.7-4.5,0.2-7-1.2
	c-2.5-1.3-1.3-5-9.7-1.3c-8.4,3.7-10.5,3.3-15.3,1.7s-4.8-1.7-4.8-1.7s-0.8,6.9,0.2,13.5c1.1,6.7,2.6,11.9,4.8,14.3
	c2.3,2.4,1,2.4,5.6,3c4.6,0.6,6.2,3,9.3,4c3.1,1.1,3.5,0.5,6,4.7s5.8,7.8,8.7,8.3c2.8,0.5,2.6-1.2,3.5,3.6s4,10.7,2.8,12.4
	c-1.2,1.7-5.5,1.1-3.7,3.4c1.8,2.3,6.9,6.6,3.7,7.6s-8.2-1.2-10.2-0.1c-2,1.1-10.3,5.7-10.3,5.7s-1.2-3.3-2.9,3.4
	c-1.8,6.6-1.2,8.8-6.5,9.4s-4.7,1.2-7.2,2.1c-2.5,0.9-2.5,0.9-2.5,0.9s4.7,7.6,8.1,10.3C61.7,460.7,66,467.3,70.7,463.7z"/>
<path id="XMLID_25_" class="st0" d="M128.5,512c0,0-3.2,3.3-2.8,7.7c0.3,4.3,0,4-4.7,6s-5.7,3.7-6,7c-0.3,3.3-2.3,5.3-3,8.2
	s2,5.2,0,6.5c-2,1.3-4.3,2.3-4,3.7s0.7,2.7-2.7,2.3c-3.3-0.3-6-1.6-8.7,0.1c-2.7,1.6-6.8,0-6.8,0s-3.9,1.9-2.2,5.3
	c1.7,3.3,3.7,4.7,3.7,8c0,3.3-1.7,6.3,0.7,6.7c2.3,0.3,2.7,0.3,2,4.3S91,589,93.3,593c2.3,4,4.3,12.7,4.3,12.7s6.8-0.3,10.2-0.7
	s8.2-3.2,11.9-4.3s9.8-0.8,14.9-1c5.1-0.2,11.5,1.5,15.6-2.8c4.1-4.3,6.2-8.9,8.3-7.3s3.6,5.1,7.3,5.6c3.8,0.4,12.1,2.1,12.1,2.1
	s4.7-0.5,5.9-3.1c1.1-2.6,1.5-8.4,2.7-10.3c1.1-1.9,2.1-6.3,2.1-6.3s-5.6-6.6-6.8-6.4c-1.2,0.3-1.2,0.2-1.6,2
	c-0.4,1.8-6.3,1.7-6.3,1.7s1.7-7.4,2-10.2c0.3-2.8,2.3-2.5,4.3-4.8c2-2.3,4.3-7,0-8c-4.3-1-6.1-0.3-5-4.6c1.1-4.3,2-6.6,2-6.6
	l-11.7-1.5l-4.4,3c0,0-4.5-0.5-6-0.3s-0.1-8.1,3-11.3c3.2-3.2,5.5-7,2.6-8.8c-2.9-1.8-12.5-6.2-16.6-8c-4-1.8-7.9-3.5-11.1-3.3
	C130,510.7,128.5,512,128.5,512z"/>
<path id="XMLID_52_" class="st0" d="M392,87.3c0,0-11.3-2.7-12.7,0c-1.3,2.7,7.3,7.4,6.3,8.8c-1,1.3-3.7,0.4-9.7,5.7
	c-6,5.3-10.5,13.5-8.5,14.8c2,1.3,2.2,7.3-0.6,6c-2.8-1.3-5.9-5.7-10.3-7.4c-8.8-3.3-10.4-9.7-13.2-11.7c-2.7-2-8.6,8.1-13.3,0.9
	s-6.5-27.2-14.6-31.8c-8.1-4.7-28.1-12-28.1-12s-7.5-2.4-6.7-9.3c0.8-6.9,4.7-12.1,5-17s-2.8-9.1-2.8-9.1s9-1.9,12.4,6.8
	c3.4,8.7,13.5,12.7,20.1,14.7s8.6,8.7,15.9,12.7c7.3,4,10.7,7.3,16.3,10c5.7,2.7,12.3,4,15.7,1.3c3.3-2.7,10-4,12.7-4s7.3,0,6.7,3.3
	c-0.7,3.3-10,5.6-6.7,7.8c3.3,2.2,6.7,0.2,11.3,4.9C392,87.3,392,87.3,392,87.3z"/>
<path id="XMLID_5_" class="st0" d="M256,134c0,0,10.7,6.7,14,5.3c3.3-1.3,13.3,0.2,16-2.6s4.5-1.4,9.3-2.8c4.7-1.3,7.8,7.6,5.8,10.8
	c-2,3.2,6.3-7.1,7-5.3c0.5,1.5,3.5,9.8,7.4,9.2c3.9-0.7,17.1-7.6,20.9-7.4c3.7,0.1,5.1,1.2,11.4,0c6.3-1.2,13-3.8,13.7-7.5
	c0.7-3.7,2.6-14.1,2.6-14.1s-13.5-7.6-16.3-10c-2.7-2.5-0.4-8.2-7-5c-6.6,3.2-8.6,6.5-10.7,0s-4.6-17.5-6.8-22.1
	c-2.2-4.6-9.7-11.2-18.6-14.9c-8.9-3.7-17.3-6.8-17.3-6.8s4.9,6.5,4,8.7c-0.9,2.3-6,2.3-5.3,8.5c0.7,6.2,8.5,6.9,8.7,12.2
	c0.1,5.3,2.2,8.6-5.3,9.3c-9.5,1-6.5,4.8-14.2,11.8c-7.8,6.9-9.7,8.6-9.7,8.6s-2.3-5.8-9-4.8c-6.8,1-3.2,8.6-10.5,7.6
	c-7.3-1-9.9,2.3-19.3,0.9s-17.5-5.7-22.1-3.9c-4.6,1.8-6.9,4.1,1.2,5.5c8.1,1.3,14.2,1.7,16.9,3c2.7,1.3,6.7,7.8,9.4,8.6
	C237.7,138,254,131.2,256,134z"/>
<path id="XMLID_49_" class="st0" d="M349.6,141.6c0,0-7.8,3.6-2,7.1c9.4,5.7,20.3,8.6,16.3,11.3c-3.9,2.7-9.1,0.7-9.8,4.7
	s0.8,9.4,0,10c-1.3,1-0.7-3.3-6.4,0c-5.7,3.3-11.1,1.3-11.4,5.3s-0.9,7.3-4.3,4.7c-3.3-2.7-9.3-2.7-10,1c-0.7,3.7,0.7,7.7,0,11.7
	c-0.7,4-5.9,2.7-6.6,8s0.7,6.4,0,11.1c-0.7,4.7-3.4,11.8-3.4,11.8h-4.3c0,0-0.5,8.7-3,9.7c-1.5,0.6-6-3.6-6.7-0.3
	c-0.7,3.3-2.7,4.5-7.3-0.1c-4.7-4.7-2.2-6.7-10.1-6.7c-7.9,0-8.6,4.6-13.2,5.3c-4.7,0.7-8.7-2-8-7.3c0.7-5.3-2.7-4-8.7-5.3
	c-6-1.3-4-2.7-4.7-6.7s-6-12-6-12s-3.4-4.3-2.7-4.6c1.8-0.7,6.1,1.9,10.7,0.6c4.7-1.3,10.7-8.5,10.7-8.5s-4-4.8-8-6.8s-2-8-2-8
	s-5.3-2-8.7-1.3s-2-2.7-6.7-3.3c-4.7-0.7-6-4.7-10.7-4c-4.7,0.7-4.7-4-3.3-8c1.3-4,0.7-8.1-5.3-5.1c-6,3.1-20,0-20,0l-4.7-2.3
	c0,0,6.6-11.8,4.7-15.3c-0.6-1.1-6-1.8-4-3.3c1.5-1.2,3.9-3,5.3-5.3c1.6-2.6,3-5.5,5.1-5.7c1.7-0.2,9.4,2.5,14.9,3.4
	c7.4,1.2,5.2-0.9,10.6,5.1c5.4,5.9,8.2,4.9,12.8,4.6c4.7-0.3,11.8-5.7,17.2-2.7c5.5,3,12.1,6.5,21,4.6s17.8-6.4,21.5-4.8
	c3.7,1.6,2.7,10.2,2.7,10.2l6.7-4.5c0,0,2.9,9.2,7.4,9.2c5.7-0.1,15.8-8,20.9-7.4L349.6,141.6z"/>
<path id="XMLID_12_" class="st0" d="M237.3,200.1c0,0-4.3,1.9-4.9,5.6c-0.7,3.7-3.7,4.3-4.7,8c-1,3.7,2.7,6,1.7,9.3s0,7-4,6.3
	c-4-0.7-5.7-3-7.7,1.7s1.3,3.4-2,9.4c-3.3,6-8,7-6.7,9s1,2.8-1.7,3.4c-2.7,0.6-4.3,2.6-3.7,5.6c0.7,3-3.2,1.7-3.9,3.3
	c-0.8,1.7,2.9,3.7-4.4,9.7c-7.3,6-9,10-7.3,15.7s4.7,5,6.3,8c1.7,3,1.8,6,5.4,4.3c3.6-1.7,3.6-3.3,6.2-4c2.7-0.7,10.3-7,15.3-1.7
	c5,5.3,14.9,10.6,15.9,6.1c1.1-4.5,4.7-2.1,8.4-2.8c3.7-0.7,4-3.7,4-4.7s2.7-0.3,6-1.3c3.3-1,3.7-0.3,6,0.7c2.3,1,5,2,6.7,2
	c1.7,0,1-3,4.3-3.7c3.3-0.7,8.8,0.7,7.9-1.7c-0.9-2.3-3.6-6,0.1-5.7c3.7,0.3,4.4,5,7.7,5.7c3.3,0.7,2.9-0.3,6.9-4
	c4.1-3.7,3.4-8.2,3.4-8.2s-1.4-8.5-1.3-10.1c0.1-1.6,4.3-5.9,4.3-11.1s-1.8-6.3-6.4-11.9c-4.6-5.7-7.9-11.9-11.3-12.1
	s-9.1,1.8-12.9,3.4c-3.7,1.7-10.8,2.1-11.3-1.8c-0.5-3.9,2.7-7.2-2.3-8c-5-0.8-6.6,1.3-9-1.8c-2.4-3.1-1.6-5.7-4-10.2
	C242.1,208.1,237.3,200.1,237.3,200.1z"/>
<path id="XMLID_45_" class="st0" d="M241.7,301.5c0,0-0.3-0.2,0,4.2c0.3,4.3,4,4.3-0.1,7.7c-4.2,3.3-6.5,4-3.2,8.7
	c1.7,2.3,4.6,3.9,5.4,6.2c1.1,3.2,5.9-1.2,7.9-1.5c2-0.3,6.6-3.1,9,2.7c1.2,2.9,6.3,4.5,9,3.4c2.7-1.1,3.1,2.1,7.4,0.3
	s9.6-7.4,11.3-6.4c1.7,1,5.7,2,8.3,4.3c2.7,2.3,6.6,4.6,10.3,3.1c3.7-1.5,3.2-1.3,5.6,0.5c2.4,1.7,7.8-0.7,9.3-3.4
	c1.5-2.7,5.4-4.5,5.4-4.5s-2.8-2.3,0-5.3c2.8-3,3-4.2,2-8c-2.4-9.5-0.3-17.4-2.9-19.5c-4.6-3.8-8.8,2.8-11,1.2
	c-0.9-0.7-0.1-4-4.1-2.3c-4,1.7-4.6-2.9-4-8.1s4-8.4-2.3-8.4s-6.1-0.4-6.3,0c-0.9,1.8-0.6,5.4-2.6,7.4c-3.9,3.8-5.4,6.5-7.7,4.8
	c-3.3-2.5-4.8-3.7-6.1-5.2c-0.6-0.7-5.1-2.8-3.3,1.2s3.8,5.4-0.2,5.4c-4,0-6.9,0.2-8.6,2c-1.7,1.8-2.4,1.5-8.4-0.2
	c-6-1.7-5.7,0.4-9.1-0.1c-4.2-0.7-0.6,2.7-4.6,4.4C243.8,297.8,241.7,301.5,241.7,301.5z"/>
<path id="XMLID_15_" class="st0" d="M242.3,361.7c0,0,0.3,3.7-4,2c-4.3-1.7-9.7-2.3-9.7,2.7s2,18,0,23s-5.3,7-4,9
	c1.3,2,0.9,5.2-0.3,7.3c-1.7,3.1-5.8,7.7-6.7,5.7c-1.1-2.3,0-2,0-4.3s-1-4.7-4-3s-1.3,5.3-3.7,4.3s-3.3-3.3-3.7-6.3
	c-0.3-3,0-5.7-2.3-8.7s-7.2-6.7-4.2-8.7s3.9-8,3.9-10s-2.7-7.7-1.3-9c1.3-1.3,1.3-11.7-3.5-13.7c-4.8-2-7.5-2.3-4.8-4.7
	c2.7-2.3,9.7-2.7,8-7c-1.7-4.3-8.1-0.6-9.1-5.2s-0.1-3.5,0-8.5s2.7-7,1.1-11s-1-4.7-4.7-3.7c-3.7,1-4.5,1.7-1.9-2.7
	c2.6-4.3,5.3-7.8,5.3-7.8s2.7-3.2,3.6-2.6c0.7,0.5-0.8,3.5,3.5,0.5s12.5-7.2,14.4-7.5c1.9-0.3,5.4-1.2,9.5,4
	c4.1,5.2,12.3,7.6,13.4,4.4c1.1-3.2,9.8-3.8,9.5-3.4c-2,2.8-4.2,2.4-4.8,4.7c-1.1,4,1.8,9.2,1.8,9.2s-0.3,0.9-3.4,3.7
	c-3.1,2.8-3.8,3.5-1.8,7.6c2,4.1,7.1,5,6.2,10.3c-0.9,5.3-5.2,11.3-3.9,12.7c1.3,1.3,2.7-0.7,3.9,2.3c1.1,3,6.8,4.3,3.6,5.7
	S243.8,359.3,242.3,361.7z"/>
<path id="XMLID_42_" class="st0" d="M214.7,417c0,0,4,1.3,5,4s4.4,4.9,6.1,7.1c3.3,4.1,8,9.5,12,11.1c4,1.7,6-0.6,6.7-0.9
	c2-0.9,4.9-1.5,6.8-3c2.7-2.2,5-5.8,8.3-7.2c3.3-1.5,5.3,1.1,10.3,0c5-1.1,12-1.5,12-1.5s2.5-0.3,3.3-2.7c0.9-2.4,2-3.3,3.7-6.3
	c1.7-3,2-4.9,0.3-6.3c-1.6-1.5-4.2-4.4-3-5.3c0.8-0.6,1.8,1.1,4.1-0.1c2.2-1.2,7.1-1.3,5.6-4.9c-1.5-3.6-0.8-10.7-0.8-10.7l-5.3-1.7
	c0,0-1,0.1,2.3-4.7c3.3-4.7,8.6-7.2,5.7-12.8s-7.7-5.3-6-8.2c1.8-2.8,5.2-3.1,8-8.8c2.8-5.7,2.2-11,3.4-15.4
	c1.2-4.4,1.1-3.5-1.8-4.7c-5.5-2.1-10.1-5.9-11.7-6.6c-1.6-0.8-3.1-0.8-6.8,1.8s-6.4,5.3-9.1,4.3s-5.2-0.2-6.7-0.5
	c-1.5-0.3-4.7,0.3-6.7-3.7s-5.2-5.2-9-2.7c-3.8,2.6-5.8,1.1-7.1,5.7c-1.4,4.6-6.1,12.1-3.9,12.7s1-0.7,3.9,2.3
	c2.9,3,6.5,2.9,3.6,5.7s-4.3,6.3-5.8,8.7s-2.2,2.1-5.6,1.5c-3.4-0.7-5.6-3-6.8,0.1c-1.3,3.1,0.4,16.7-0.4,21.4
	c-0.8,4.7-4.8,13.7-4.8,13.7s3.3,2.5-0.3,7.3c-3.6,4.9-4.1,3.5-6.7,5.7C214,414.4,213,416.3,214.7,417z"/>
<path id="XMLID_18_" class="st0" d="M211.3,421.3c0,0,2.3,5.3-2.7,5c-5-0.3-8-3.3-12.3,0c-4.3,3.3-7.5,4.3-10.4,3.7s-4.9-1-5.6,2
	c-0.7,3,0.7,3.2-3.3,7.2s-7.3,5-7,7.4c0.5,3.1,3.2,3.3,4,3.3c2.9,0,3.7-4,6.3-4.3c2.7-0.3,5.5,1.3,5.6,4.3s0.8,5.7,3.4,4.7
	c2.7-1,10.7-3.6,11.7,0.2s0.7,14.5,2.7,16.8c2,2.3,3.7-2.3,5,0c1.3,2.3,5,5.3,5.3,3.7c0.3-1.7,0.6-2.7,3.5-1.7c2.8,1,3.2,1,3.8-1.7
	c0.7-2.7,3.3-5.7,5.3-2.7s-0.3,5.3,1.3,6.5s3.3-2.5,5.7,3.2s0,8.3,4.7,7c4.7-1.3,9.5-1,10.8-1c1.2,0,0.6-4.5,1.1-5.6
	c1.6-3.7,1.5-5.7,1.5-7.4s0.6-5.1,3.3-4.3c3,0.8,9.5,1,11.7-1c3.1-2.9,6-5.3,5-6.3s3.7-0.7,6.7-2.3s7.6-0.1,8.7-1.7s3.2-3.7,1.6-10
	c-1.6-6.3,3.7-6,0.7-9.7c-3-3.7-7.3-10-7.3-10s-8,1.3-12,1.5s-5.7-0.9-8-0.5c-2.3,0.5-6.3,0.3-10.7,7.7c0,0-1-0.1-5,1.9
	c-4,2-4.4,3.6-7.6,2c-3.2-1.6-8.6-3.8-12.2-10c-3.5-6.2-6.8-8.3-6.8-8.3l-5-4L211.3,421.3z"/>
<path id="XMLID_27_" class="st0" d="M155.3,542c1.2,1.4,3.3-0.7,6,0.3s1-3,4.4-3c3.3,0,6.7,1.5,13.4,1.6s15-0.1,14.7,4.2
	c-0.3,4.2-3,13.2,0,12.9c3-0.3,5.3,1.4,6.7,0c1.3-1.3,3.7-6.3,7-1.7c3.3,4.7,5.3,8.3,4.7,11.3s4.2,8.3,4.2,8.3v1.7
	c0,0,6.5-0.6,5.7-4.3c-0.8-3.7-4.2-5.8-2.4-8.7s5.8-2.3,4.5-7.3c-1.3-5-2.4-8.5,2.1-10s10.7-2.3,10.7-2.3s-4.4-6.7-3-8.3
	c1.6-1.8,2.7,0.5,9.3-2.3c6.6-2.9,5.6-1.7,8.4-7.3c1.2-2.4,0.6-6.7,5.3-7.3c4.7-0.7,11-0.1,10.9-5.4c-0.2-5.3-0.2-14.1,2-16.9
	s10.9-8.3,7.8-12.4s-6.5-11.5-0.7-12.7c5.8-1.1,20.3-1.2,18.6-5.7c-1.7-4.5-2.6-7.6-6.8-6.7c-4.1,0.9-4.8,4.5-6.8,4.7
	c-2,0.3-6.4,2.8-3.4-2.8c3-5.6,2.4-4.7,2.4-4.7s-7.6,1.1-9,3.1c-1.2,1.6,0,3.8-5,6.3c-7.2,3.6-10.4-0.8-13.2,0.8
	c-2.8,1.6-0.4,5.4-2.4,9.7s-2,7.9-2,7.9s-10.8,1.4-13.1,1.9c-1.6,0.4-0.8-3.7-1.9-6.9c-0.7-2-3.1-4.3-6.1-4.3
	c-1.7,0-0.1-5.4-1.3-6.5c-1.2-1.1-3.1-3-4.5,0.7c-1.4,3.7-2.6,4-4.6,3.6c-2-0.4-3.5,1.7-3.5,1.7s-3.2,0.1-4-1.9
	c-2.1-4.9-5.2-0.6-6.3-1.8c-1.9-2,0.1-3.1-1.9-10.7c-2-7.6,0.6-9.3-5.1-8.1c-4.5,1-7.3,1.8-8.6,2c-3.1,0.5-0.8-4.6-2.1-4.9
	c-1.4-0.3-6.2,4.7-9.2,8s-14,10.3-15.7,15.3s-1.7,10-7.2,21c-5.5,11-9.5,19.5-9.5,19.5s3.3,3.2,8.7,4.5c5.3,1.3,10,3.7,9.3,7
	c-0.7,3.3-4,5.3-4,5.3S153.3,539.6,155.3,542z"/>
<path id="XMLID_19_" class="st0" d="M174,575c0,0,6.3,1.3,6.3-1.7s1.7-2.7,4,0c2.3,2.7,6.7,3.7,3.3,8.7c-3.3,5-1.3,6-2.7,9.7
	c-1.3,3.7-3.3,7-7,5.7c-3.7-1.3-3.4-1.3-8.3-1.7c-5-0.3-7.7-1-9-4.3c-1.3-3.3-5.7-1-6.3,1.3c-0.7,2.3-4,5.7-12.7,6.7
	c-8.7,1-9.7-0.3-15.7,0c-6,0.3-9.7,3-11.7,4.3c-2,1.3-16.7,2-16.7,2s1.7,2.7-3.7,4.7s-6.3,4.7-7.3,7.3c-1,2.7-3.6,0.1-6.3,0
	c-10.3-0.3-14-2.3-15,1.2c-1,3.5-7.3,5.5-4.7,9.8c2.7,4.3,4.3,4.9,4.3,9.1s0,4.9,3.7,4.2c3.7-0.7,10-2,11-2.3c1-0.3-2.7,9-8.7,14.3
	s-9,12-2.3,17.3c6.7,5.3,10,3.3,15-3.3s8.7-10.7,12.3-14.7s8.7-2.3,13.7,2c5,4.3,10,9.7,13.3,7.7s9-2.3,9.7,3.7
	c0.7,6,1.3,10.4,7.3,7.7s10.3-7.4,15.3-6.1c5,1.3,6.3,8.3,10,9c3.7,0.7,4.7-2.7,6.7,0c2,2.7,1.7,6,2.7,9.7s-0.7,7,1.7,10
	c2.3,3,4,5.3,4,5.3s2.7,2.5,4.6-1.8c1.9-4.2,4.4-5.6,5.4-10.6s-0.4-9.4,2-12s5.3-7,10.3-4.7c5,2.3,6.5-0.5,9-2.7s5.4-2.1,5.6-7.1
	c0.2-5,0.9-18.5,0.4-20.4c-0.5-2-7.6-4.2-6.4-9.2s4.1-6.7,3.7-10.3c-0.3-3.6-3.2-6.6-2.1-10.9c1.1-4.3,3.2-6.3,2.7-8.3
	c-0.6-2-0.6-7.7-0.6-7.7s-4.3-3.4-5.3-4.7c-1-1.3-2.7-6.4-0.9-7c1.8-0.6,2-3.1,6.5-5.6c4.4-2.5,1.8-3.2,0.5-4.8s-1.7-4.5-3.2-8.5
	s-2.7-7.7-5.2-9.6c-2.5-1.9-4.3-1.7-5.7,0c-1.3,1.7-8,1.7-8,1.7s-2.1,0.3-1-6.3s2.5-9.5-2.9-10.1c-5.4-0.6-12.4-0.8-12.4-0.8
	s-3.7,8.2-1.3,10.2s5.7-0.3,6,2.7s1,5.7-1.7,6.3c-2.7,0.7-4,2-4,2S175.3,573,174,575z"/>
<path id="XMLID_24_" class="st0" d="M653,238.3c2,2-0.3,5.7,1.7,7.7s5.1,3,5.6,8s2.1,6.7,1.4,11c-0.7,4.3,1.3,4.7,3.3,6s2.7,4-2,3.7
	c-4.7-0.3-10.7,2.7-12.7,0c-2-2.7-4.3-9-6-5c-1.7,4-18.7,64.3-18.7,66.3s0.7,3-2.7,2.7c-3.3-0.3-9.3-5.7-14.3-6.7s-8-6-10-7.7
	c-2-1.7-7.7-3.7-12.7-6c-5-2.3-3.3,2.3-10-1.7s-20.7-10-24.3-8.7c-3.7,1.3-14.7,2-17,2.3c-2.3,0.3-8.7-5.7-11-5.3
	c-2.3,0.3-4.3,2.7-9-1.3c-4.7-4-7.3-5.7-6.7-9.3c0.7-3.7,2.3-10,2.3-10L498,286c0,0,5.3,2.3-2.7,4s-13,2.3-15,1.7
	c-2-0.7-3.3-1-4.3,2.7c-1,3.7-2.7,8.3-7,5.3s-19-7-19-7s0-6.7-1.3-9c-1.3-2.3-0.3-6,1.3-7.7s1-4.7-0.3-5.3c-1.3-0.7,3.3-2.7,4-4.3
	c0.7-1.7-1.9-2.7-5.6-2c-3.7,0.7-7,1-7,1s-0.3-4.3-2.3-4.7c-2-0.3-4.7,0.7-4.7,0.7s-3.3-7,0-10.3s8.7-7,8.3-9
	c-0.3-2-3.3-6.3-6.3-1.6c-3,4.6-3.7,7-6.3,8.6c-2.7,1.7-3,5.1-5,6.5s-8.7,4.1-13.3,5.8c-4.7,1.7-5.3,6-7.7,6.3
	c-2.3,0.3-14-2-13.3-3.3c0.7-1.3,6.7-2.3,7.3-4.7c0.7-2.3,1-7.7,1-7.7s-1.7-7.3,0.7-8.3c2.3-1,0.7-2.6-0.7-3.3
	c-1.3-0.7-1.7-5.7-1.3-8c0.3-2.3-2-2-3.7-1.3c-1.7,0.7-6.3-7.7-6.3-7.7s3.3-4.7,4.7-5.7s1-5.7,2-6.3c1-0.7,1.7,1.3,3.3,3
	c1.7,1.7,9,2,10,4.3c1,2.3,6-0.7,6-0.7l3.7-8c0,0,4.3,1.3,4-1.3c-0.3-2.7,1.7-7,1.7-7s3.3,3.7,4.3,3c1-0.7-0.7-4.3,0.3-6.7
	s2.7-10.7-1.3-11.7s-3-4-2-7.3s-3-9.3-3-9.3s3-5,7-2s10.3,4.7,13,4.3s6.3,0.7,8.7,2c2.3,1.3,6,1.3,8-1.3c2-2.7,8.7-7.3,10-3
	c1.3,4.3,12.7,23.7,16,25.7c3.3,2,17,11.7,18.7,12.3c1.7,0.7,2.7-1.7,4.3,0.3c1.7,2,6.3,9,8,8.3c1.7-0.7,5-1,7.3,1.3
	c2.3,2.3,5.7,2.3,7.7-0.3c2-2.7,10.3-7,14.3-6.7c4,0.3,11.7-2,13.7,0s4,7.3,6.3,9.7c2.3,2.3,11.3,6.7,14,5.7s3.7-5,2-8.3
	c-1.7-3.3,0.3-6.3,4.7-4c4.3,2.3,10.3,2,12.7,1.7c2.3-0.3,7-1,7.7,2s7.3,1.7,9.3,1.7s10,1,10,5.7c0,4.7,4.7,5.7,8.3,4.3
	c3.7-1.3,6.7,0.7,9,3.3c2.3,2.7,4,1.7,5,1.7S650.2,235.5,653,238.3z"/>
<path id="XMLID_6_" class="st0" d="M600.7,155.2h11c0,0,12.3-3.7,10.7,2.3c-1.7,6-6,6.1-1.7,5.8c4.3-0.3,5.7-1.1,9.3,2.2
	c3.7,3.3,9.3,3.9,13,3.6s9.7,2.3,9.7,2.3s5,2.3,0,5c-5,2.7-9.3,2.7-11.7,2.3c-2.3-0.3-8.1-6-13.2-5c-5.1,1-12.8,0.3-12.8,0.3
	s-2.3,12.3-1,15.3s10.6,13.3,13.8,11.7s4.9-8,7.6,0.2c2.7,8.2,6.7,11.5,11.3,13.8c4.7,2.3,12.7,5.3,12,9.7c-0.7,4.3,0.7,6.7-1.3,8.7
	s-4.3,5-4.3,5l-6.3-4.3c0,0-1.3,1.3-5-1.7c-3.7-3-9-2.2-12-2.8c-3-0.6-3.9-1.9-5.4-4.9c-1.5-3,0.1-4.9-6.3-5.2
	c-6.4-0.3-10.1,0.9-11.5-0.6c-1.5-1.5-3.4-4.2-7.5-3.8c-4.1,0.4-11.1-0.7-14.4-1.5c-3.3-0.8-5.8,0-5.2,2c0.6,2,4.9,8.3-1.4,10.3
	s-10.9-1-14-5.7c-3.1-4.7-2.2-11.2-9.3-10.5c-7.1,0.7-18.4,2-21.7,4.8s-4.3,6.4-7.6,4.7s-8.8-2.1-10.7-3s-8-8.3-8-8.3
	s-0.6,2-4.3-0.3c-3.7-2.3-15.2-8.4-18.7-12.3c-3.5-3.9-9.5-12.2-12.8-18.9c-3.2-6.8-4.4-11.5-9.8-6.8c-5.4,4.7-7.2,6-11.4,4.4
	c-4.2-1.6-4.1-1.5-8.7-2s-9.5-3.5-13-4.3c-3.5-0.8-7,2-7,2l-7.3,7.7c0,0-1.3-2.7-4.7-1.7s-3-4.7-2.3-6c0.7-1.3,1.5-2-0.4-4
	s-2.6-3.3-4.9-0.7c-2.3,2.7-4.3,1.1-7.7,1.7c-3.3,0.6-6.3,5.6-6.3,5.6s-5.7-3-7.3-2s-2.3-3.7-5.3-1c-3,2.7-6.7,4-6.7-0.7
	c0-4.7,1.7-7.7,1.7-7.7l-4.9-3c0,0-4-2.8-7.8-4.7c-3.8-1.8-10.9-3.3-11.9-6.2c-0.9-2.9,3.3-5.1,8.2-7.4c4.9-2.2,7.5-2.9,8.7-9.8
	s0.5-9,1.9-10.4c0.7-0.7,0.9,3.9,2.8,3.1c1.9-0.8,1.2-4.3,0.6-6c-0.6-1.7-1.8-6.2,4.7-12c6.5-5.8,15.7-7.7,13.6-10
	c-2-2.3-10-6.2-6.3-7.3c3.7-1.2,9.3-1.7,12.7,0c3.3,1.7,5.3-0.7,8,1c2.7,1.7,4.7,3,3.7,7s-2.7,7.4-1,9.4c1.7,2-0.7,1.6,0.7,6
	c1.3,4.3,4,6,5,7s3.3,6.3,5,3.7c1.7-2.7,7-3,14-1s7.3-0.3,12-1c4.7-0.7,2.7-0.2,7.3,5.4c4.7,5.6,3.7,2.9,7.7,3.9
	c4,1,14.7,5.7,19.3,4.3c4.7-1.3,5.7-3.7,8-2c2.3,1.7,5-1.3,5.7-2.3c0.7-1,9-0.3,12.7,3c3.7,3.3,6.7,2,9,1s4.7,0.3,8.7,0.3
	s9.5,4,9.3-0.3c-0.3-4.3-2.1-16.7,0-17c2.1-0.3,5.4,0.3,8.1-2.3c2.7-2.7,2-1.3,11.7,1.7c9.7,3,13.3-1.7,14.7,2.3c1.3,4,6,0,8.7,3
	s7.7,14.2,11.7,18.5C585.7,143.2,598.7,155.2,600.7,155.2z"/>
<path id="XMLID_17_" class="st0" d="M447,286.3c0,0-7.2,2.7-16.5,4c-9.3,1.3-68.9,13-70.9,13.4c-2,0.3-1,1.7-2.3,3
	c-1.3,1.3-9.6-1-15.6-2s-8.3-2-11.7-4c-3.3-2-1-8-6.7-8s-6.9,3.3-7.9,2.3c-1.1-1-1.5-3-4.1-2.3c-1.2,0.3-3.1,0.9-3.4-0.8
	s-1.9-4-0.6-7.3s3.3-9.2-2.3-8.4c-3.3,0.5-5.8,1.5-6.3,0c-0.4-1,0.7-0.8,0-4.2c-0.7-3.3-2.7-7,0-10c2.7-3,5-11.7,1.3-15.3
	c-3.7-3.7-4.7-6.3-4.7-6.3c2.7-3,4-5.3,6.7-4.2c2.7,1.1,3.2,0.2,3.2,0.2l2.6-8.2h4c0,0,4.1-5,3.9-13.7c-0.2-8.6-0.1-9.9,3.1-13.4
	s2.1-7.6,3.1-12.2c0.9-4.6,0.9-6.7,3.8-6.2s7.1,3.9,8.4,3.1c1.3-0.8,1.4-3.8,2.2-5.6c0.9-1.9,5.9-2.8,8.6-4.1
	c2.8-1.3,5.8-2.5,9.2-1.3c2.9,1.1-1.5-11.8,1.9-12.4c10.7-1.8,8.8-4.3,8.8-4.3l4.9,3c0,0-2.9,5.9-1.5,9.3c1.5,3.4,6.5-0.9,6.5-0.9
	l3.8,0.5l8.9,2.5c0,0,5.4-5.3,8.7-5.6c3.3-0.3,7.7-3.2,7.7-3.2l2.6,2.1c0,0,0.8,0.1,0.4,4c-0.3,3.9-0.9,5.8,2.3,6
	c3.2,0.2,4.7,1.7,4.7,1.7l7.3-7.7c0,0,2.9,3.6,3,6.5c0,2.9-2.9,7-0.5,8.6s6.2-0.8,5,6.2s-1.5,13.7-1.5,13.7l-4-4.3
	c0,0-1.8,4.4-1.9,6.3c-0.1,2-2.1,4.7-4.1,3.3s-0.7,1.5-2.2,4.8c-1.5,3.2-7.5,3.9-7.5,3.9s-2.1-1.2-6.1-2.8c-3.9-1.6-6.2-8.5-7.3-4.6
	c-1,3.9-2.9,7-4.8,9.5c-1.9,2.5-1.3,4.1,0.8,6.8c2.1,2.6,6.8,3.1,6.8,3.1s0,0.6,0.5,4.3c0.5,3.7-1.9,3,1.4,5.3
	c3.3,2.3,1.9,0,0.7,3.3c-1.2,3.3-0.2,6.7-0.9,11.3c-0.7,4.7,0.9,4.7-3.6,7s-6.3,3.7,1.3,4.6c7.6,1,9.1,1.1,12.5-3.8
	c3.4-4.9,12.9-2.6,16.1-7.4c3.2-4.7,3.2-2.5,6.8-8c3.6-5.6,4.9-9.7,6.9-9.2c2,0.5,6.5-0.1,4,3.7s-6.9,5-8.3,9s0,10.3,0,10.3
	s2.9-2.7,4.7-0.7c1.8,2.1,2.3,4.7,2.3,4.7s9.6-1.8,11.1-1s2.4,1.1,0,3.7c-2.4,2.6-2.4,2.6-2.4,2.6s3.4-0.9,1.3,3
	C448.9,277.6,444,281.2,447,286.3z"/>
<path id="XMLID_10_" class="st0" d="M623,338.7c0,0,1-5-9.3,8.3c-10.3,13.3-39.3,49-44,55.3c-4.7,6.3-10.7,9.7-29.3,24.3
	c-18.7,14.7-40,31.3-40,31.3s1.3-2-2-3.3c-3.3-1.3-5.7,2.7-8.3,1.7s-7-1.3-9.7-3.3c-2.7-2-1.7-2.3-5.7-1.3s-12.3,0.7-15.7-2.3
	s0.3-6.7-3.3-9.3c-3.7-2.7-7.7-14.3-13-15.7c-5.3-1.3-6.3-1.7-9.7-4.7s-9.3-9.3-17-12c-7.7-2.7-13.7-1-16.3-4.3
	c-2.7-3.3-12-6.7-16.3-8c-4.3-1.3-6.7-2.7-10.3-7.7s-8-2.7-9.7-6c-1.7-3.3,0-6.7-1.7-8.3c-1.7-1.7-0.7-5.3-2.3-7.7
	c-1.7-2.3,0-6-2.3-9.7s-4-6.3-9.3-5.7c-5.3,0.7-8.3,3.3-10.7-5.7s-9.7-18-9.7-18s-2-3.3,0-5.3s4.3-2,2-8c-2.3-6,0.7-12.7,0.7-12.7
	s12.4,4.2,17.7,5.2c5.3,1,9.6,0.8,9.6,0.8s0.2-2.6,2.3-3c2.1-0.4,48-9.2,48-9.2l41.8-8.7c0,0,1.3,4.9,0.6,6.9c0,0,15,3.7,19,7
	c4,3.3,5.7-1.7,5.7-1.7s2.2-7.1,3.9-6.7c1.7,0.4,6.7,0.6,9.6,0.1c2.9-0.5,13.1-2.7,11.4-4S498,286,498,286l12.3-1.7
	c0,0-4,5.1-2.3,10c1.7,4.9,6.8,12,10.5,11.5c3.8-0.5,6.4-0.9,8.4,0.4c2,1.2,7.7,4.1,7.7,4.1s7.3-0.6,10.3-1.1c3-0.4,7.4-3.8,10-2.2
	s13.1,5.3,17.1,7.5c3.9,2.2,6.9,2.8,10.4,3.3c3.5,0.5,11.3,3.6,13.7,5.1c2.4,1.5,5.1,4.8,7.1,6.3c2,1.5,7.5,3.2,10.7,5.1
	C617.2,336,623,338.7,623,338.7z"/>
<path id="XMLID_8_" class="st0" d="M493.6,460.9c0,0-67.3,22.5-85,28.5s-38.3,7.6-49.6,17.6c-11.3,10-18.7,20.3-20.7,22.3
	s-4.7-2-5,0s4,5-2.7,10s-13,6.3-7.7,12c5.3,5.7,10.3,12.3,6.3,13c-4,0.7-5.3-4.7-8.3-1.7s-6.2,4.7-5.6-0.7s2-11-2.7-10.3
	c-4.7,0.7-10.6,4-10.6,9s0,6.5,0,6.5h-20.5c0,0-4.7,2.3-8.3,2c-3.7-0.3-9,4.4-9,4.4s-2.7-2.5-8.7-3.8c-6-1.3-11-4.1-14-10.7
	s-1.7-12.4-5-14c-3.3-1.7-3-8.3-3-8.3s11-2.7,14-3.7s1.7-3.7,3.7-6s0.7-6.7,5.3-7.3c4.7-0.7,10-1,10.7-4c0.7-3-0.3-7.3,0-10.7
	c0.3-3.3,1.3-7.7,4.3-10.3c3-2.7,8.3-6.7,5.7-9.7c-2.7-3-4.7-6-3.7-7.7c1-1.7,0.7-3.7,3-5c2.3-1.3,19.5-1.7,18.6-5.7
	s-1.7-4.9-3.6-6.4c-3-2.3-12.1,6.9-13.8,5.2c-1.7-1.7,0.1-4.5,1.1-5.8c1-1.4,1.8-2.3,2.8-2.5c1.4-0.4,4.2,1.5,5.2-0.8
	c1-2.3,4-2.5,2-7.7c-2.7-7,1.3-8.9,1.3-10.3c0-1.3-2.6-3.4-3.9-5.4c-1.6-2.4-5.6-4.9-4.3-6.3c0.7-0.8,2.3,0.7,3.3-2.7
	s2.3-5.3,3.7-6.3s3-5,0.3-6.3c-2.7-1.3-4.2-4.4-3-5.3c1.2-1,3.7,1,6.3-1.3c2.7-2.3,4.5-3.3,2.6-5.3s0.6-7.7,0-9
	c-0.6-1.3-4.6,1-5.3-1.7c-0.7-2.7,0.7-2.7,2.3-4.7c1.7-2,5-7.3,6-9.3s-2.7-10-5-10.7c-2.3-0.7-1.5-2,1.9-5.3
	c3.4-3.3,4.7-3.7,6.7-7.3c2-3.7,0.3-6.7,1-10.3s2.5-6.5,2.5-6.5s3.5-0.2,5.2-1.9c1.7-1.7,0.1,3.7,4.7,2c4.6-1.7,6.6-2.7,7.3-5
	c0.7-2.3,4.7-3,4.7-3s4.6,5.3,6.9,10.9s2.8,13.8,6.7,13.5c4-0.2,9.8-1.9,12,0.1c2.2,2.1,4.6,7.2,5.5,10.8s3.2,11.3,3.2,11.3
	s0.1,2.3,0.9,5.3c0.8,3,3.3,4,6.3,5.8c2.9,1.8,5,6.4,9.1,8.4s16.4,6,19.1,8.2c2.7,2.2,5.3,3.5,12.1,5c6.9,1.5,15.3,5.7,20.4,10.3
	c5.1,4.6,13.3,7.5,14.7,8.6c1.4,1.1,9.7,9.3,11.5,15c1.8,5.7,1.8,10,6.4,11c4.6,1,7.6,3.3,14.6-1c0,0,3.7,3.8,8.5,5
	c4.8,1.3,10.2,0,13.2-0.4c3-0.3,6.3,0.7,2,3.3C496,460.7,493.6,460.9,493.6,460.9z"/>
<path id="XMLID_13_" class="st0" d="M303.2,567.2c0,0,5.5,6.3,0,20c-5.5,13.7-11.5,14.8-15.2,25.1s-10.3,19.9-9,28.2
	c1.3,8.3,1.3,7.9-2.7,11.3c-4,3.3-6.7,6-4.3,12s5.3,0.3-0.7,14c-6,13.7-6.7,17.3-13.7,17.3c-7,0-12.3-4.3-16,5.3
	c-3.7,9.7,0.3,10.3,0,12.3c-0.3,2-2.3-0.3-5.7,6c-3.3,6.3-0.7,7-6,10.7c-5.3,3.7-5-2.7-10-1.7s-16.3,0.7-18.7,1
	c-2.3,0.3-4.3-10.3-8-10.7c-3.7-0.3-6.7-2.3-9-6c-2.3-3.7-4-9.7-4-9.7s4.7,0,5.7-3.7c1-3.7,1.7-3.7,4.3-8.7c2.7-5-1-8,2-12
	s7.3-6.7,10.3-4.7s6,0.7,9-2.7c3-3.3,5.7-2.3,5.7-8.7s2-19.3-1-22.3s-6.7-5-4.7-9.3c2-4.3,4.3-5,3-10.3c-1.3-5.3-3-9-0.7-11.7
	c2.3-2.7,1.7-3.7,1-6c-0.7-2.3,2-4,0-5.7c-2-1.7-6-4.3-7.3-8c-1.3-3.7,1.3-3.7,3-4.3c1.7-0.7,2.8-3.8,4.7-5c3.6-2.3,6.3-2,7-6
	c0.7-4-3.3-5-2.7-8.7c0.7-3.7,5-3.7,4.3-7.3c-0.7-3.7-3.7-7.7,2-10c5.7-2.3,11.7-3.6,12.6,0c0.8,3.6,1.4,12.3,5.7,16
	c4.3,3.7,11.5,5.8,14.9,7.3c3.4,1.5,5.1,2.7,5.1,2.7s3.7-3.1,9-4.2c5.3-1,8.3-2,8.3-2H303.2z"/>
</svg>
