<?xml version="1.0" encoding="utf-8"?>
<!-- Generator: Adobe Illustrator 19.0.0, SVG Export Plug-In . SVG Version: 6.00 Build 0)  -->
<svg version="1.1" id="Layer_1" xmlns="http://www.w3.org/2000/svg" xmlns:xlink="http://www.w3.org/1999/xlink" x="0px" y="0px"
	 viewBox="0 0 189.1 167" style="enable-background:new 0 0 189.1 167;" xml:space="preserve">
<style type="text/css">
	.st0{fill:#AB2C7D;stroke:#F1F1F1;stroke-miterlimit:10;}
</style>
<path id="XMLID_14_" class="st0" d="M26.8,43.2c0,0,0,0.3-5.7,2.3s-3,2.7-7.7,6s-7.7,3-6.3,5.3c1.3,2.3,1.7,4.3,4.7,2.7
	s7.2-5,7.7-1.3c0.6,3.7,0.9,6.7,2.3,10.3c1.3,3.7-2.3,2,1.3,7.7c3.7,5.7,6,8,8.7,8.7c2.7,0.7,3.3,1,2.7,3.7s2,5,6,8.3
	c4,3.3,8.7,4.3,5,6.7s-4.3,6.7-7.7,5.3c-3.3-1.3-4-0.2-8,0.2s0.3-4.2-7.3,3.4s-13,8.7-10.3,12s3.7,1,5,5.3c1.3,4.3,5.3,5.7,7.3,5.3
	c2-0.3,7,0.7,9.7,1.7c2.7,1,6-0.3,7.7-1.3c1.7-1,10.3-4.3,12.3-5c2-0.7,3.3,1,6.3-1.7s5-7.3,5.7-9.3c0.7-2,4.7-3,2.7-5.3
	c-2-2.3-5-8-7-10.3c-2-2.3-6.3,3-5.7-1.7c0.7-4.7,4.3-6.6,0-12s-8.3-5-11.7-10s-6.4-3.7-6.4-11.7s1-9.7-3-12.7s-5.3-2.7-6-6.3
	C28.5,45.9,32.5,40.9,26.8,43.2z"/>
<path id="XMLID_11_" class="st0" d="M107.8,86.2c0,0,2.7,5.7-2,7.3c-4.7,1.7-13.7-0.3-16,3.3c-2.3,3.7-5,11-2,12.3
	c3,1.3,9.1,2.3,9.7,4.7c0.6,2.3,5,4,8.3,2c3.3-2,5.7,0.3,7.7-3.7s6-7.1,3-10.7S113.2,84.9,107.8,86.2z"/>
<path id="XMLID_29_" class="st0" d="M165.5,120.2c0,0-3.3,2.7-5.7,4.3c-2.3,1.7-0.7,3.7,2.8,4.7s9.5,1.7,11.8,0c2.3-1.7,4.3-4,6-7
	s2-3.5,5-5.4s5.3-6.2,2-6.6c-3.3-0.3-5.7-4.3-8.3-1.7c-2.7,2.7-6,3.7-7,6.7S167.6,118.6,165.5,120.2z"/>
<path id="XMLID_30_" class="st0" d="M66.5,68.2c0,0,0,3.3-2,5.7c-2,2.3,0.3,3.7,1,5.3c0.7,1.7,1,0.3,7,2c6,1.7,8.7,2.3,9.7,2.7
	c1,0.3,5.3-4,6.7-5c1.3-1-1.7-4.7-4.3-6C81.8,71.5,69.8,64.2,66.5,68.2z"/>
<path id="XMLID_28_" class="st0" d="M1.5,78.5c0,0,0.4,1,5.3,0s5-5.2,8.3-3.1s7,1.4,7.3,6.1s-2.7,6.1-1.7,8.4s3.8,3-1.3,4
	s-7.7,1-11.1,0s-3.3-1.7-5.7-5.3S-1.5,79.9,1.5,78.5z"/>
<path id="XMLID_31_" class="st0" d="M89.2,29.2c0,0-2,1.3,0,3.7c2,2.3,5,4.7,7,3c2-1.7,4-6.3,1.7-6.7C95.5,28.9,93.2,23.9,89.2,29.2
	z"/>
<path id="XMLID_33_" class="st0" d="M67.8,5.2c0,0,1.7,4,0,7c-1.7,3,1.7,2.7,4,1.3C74.2,12.2,72.5,4.9,67.8,5.2z"/>
<path id="XMLID_34_" class="st0" d="M92.2,151.9c-1,2.3-2.7,5.3-3,6.3s1,3.7,6,3.3c5-0.3,5.1-0.3,6.9-3.3c1.8-3-0.1-4.7-3.2-6.3
	S92.2,151.9,92.2,151.9z"/>
<path id="XMLID_32_" class="st0" d="M121.8,120.7l4.5,1.2v-2.7l-3.6-2.4C122.8,116.8,118.7,117.5,121.8,120.7z"/>
<path id="XMLID_36_" class="st0" d="M76.4,103.5c0,0,1.4,3.3,2.7,2.7c1.3-0.7,2-3.9,0-4.8C77.2,100.5,78.4,101.2,76.4,103.5z"/>
<path id="XMLID_35_" class="st0" d="M3.5,36.4c0,0,2.7,0.4,3.3-1.6S2.5,31.3,3.5,36.4z"/>
<path id="XMLID_37_" class="st0" d="M72.9,89.9c0,0,4.5,2.7,5.6,0S75.9,83.3,72.9,89.9z"/>
<path id="XMLID_38_" class="st0" d="M131.8,33c0,0,1,3.3,3,3.4C136.8,36.5,137.5,28.8,131.8,33z"/>
<path id="XMLID_40_" class="st0" d="M149.2,161.6c0-6.1,8.5-4,9.6,0c1.1,4,0.4,6-1.9,5.3C154.5,166.2,149.2,167.6,149.2,161.6z"/>
</svg>
